<svg width="360" height="96" viewBox="0 0 360 96" fill="none" xmlns="http://www.w3.org/2000/svg">
<g clip-path="url(#clip0_18412_13165)">
<rect width="360" height="96" fill="#F7F7F7"/>
<g opacity="0.7">
<path d="M351.935 24.3756C348.576 25.62 345.455 32.9721 348.576 36.3171C351.228 39.1598 356.589 38.5205 355.698 33.0977C355.69 33.0359 355.669 32.978 355.636 32.9298C355.604 32.8817 355.562 32.8451 355.515 32.8237C351.99 31.7734 350.825 36.8879 351.568 40.2672C352.715 45.5187 356.974 45.4502 360.049 42.7102C360.15 42.6189 360.104 42.2536 359.957 42.3449C357.442 43.909 353.918 45.3018 352.385 41.306C351.568 39.1712 351.54 35.5979 353.119 33.9882C353.53 33.5115 354.072 33.2499 354.634 33.2575C355.809 33.4288 355.607 35.0042 354.946 36.0089C353.89 37.6071 351.77 37.4359 350.356 36.8194C345.519 34.6846 348.842 26.8872 351.999 24.6953C352.091 24.6268 352.073 24.3299 351.935 24.3756V24.3756Z" fill="#BA68C8"/>
<path d="M262.316 19.0625C265.476 20.2427 272.786 18.3113 271.613 12.4586C270.988 9.33906 266.911 6.57298 265.118 9.62521C265.078 9.71003 265.065 9.81209 265.084 9.90982C265.103 10.0076 265.151 10.0933 265.218 10.149C271.38 16.2723 280.014 4.09269 273.471 -2.36626C273.266 -2.57038 273.219 -2.09618 273.332 -1.94931C273.886 -1.2986 274.332 -0.519588 274.646 0.342145C274.96 1.20388 275.135 2.13103 275.16 3.06934C275.184 4.00766 275.059 4.93829 274.791 5.8068C274.523 6.67531 274.118 7.46425 273.599 8.12746C272.709 9.41603 271.543 10.3624 270.233 10.8614C269.255 11.2081 266.865 11.4884 266.136 10.1978C265.808 9.59809 265.741 10.2484 266.011 9.68789C266.244 9.36992 266.566 9.17604 266.913 9.14502C267.678 9.00844 268.463 9.20558 269.138 9.70334C270.553 10.6625 271.527 12.6114 270.867 14.5711C269.612 18.5136 265.242 19.0932 262.292 18.545C262.09 18.5031 262.163 19.0021 262.316 19.0625Z" fill="#BA68C8"/>
<path d="M293.366 60.9325C293.366 60.9325 291.356 65.8644 287.262 66.458L284.793 63.1815C284.793 63.1815 287.354 63.4213 290.722 59.026L293.366 60.9325Z" fill="#BA68C8"/>
<path d="M332.905 7.49299C332.905 7.49299 328.49 8.17798 325.801 4.285L326.618 -0.0874634C326.618 -0.0874634 327.875 2.68671 332.694 3.70276L332.905 7.49299Z" fill="#FF9F1C" fill-opacity="0.6"/>
<path d="M247.482 42.209C247.482 42.209 243.076 42.8826 240.387 39.001L241.194 34.6286C241.194 34.6286 242.461 37.4027 247.28 38.4188L247.482 42.209Z" fill="#FF9F1C" fill-opacity="0.6"/>
<path d="M302.682 27.7551C302.682 27.7551 300.672 32.687 296.578 33.292L294.109 30.0041C294.109 30.0041 297.129 30.5864 300.534 26.1911L302.682 27.7551Z" fill="#E68600"/>
<path d="M307.124 35.0384C307.124 35.0384 306.335 40.484 302.535 42.5162L299.414 40.2329C301.622 38.9937 303.457 36.9152 304.655 34.2964L307.124 35.0384Z" fill="#37474F"/>
<path d="M100.069 -2.37225C102.047 0.969841 103.537 10.4664 99.2172 11.2767C96.9147 11.7086 93.5391 7.86858 94.8809 4.56246C94.9217 4.4815 94.9846 4.42806 95.0564 4.4134C95.1281 4.39875 95.2032 4.42404 95.2656 4.48394C101.654 9.5531 96.8599 24.5189 90.1045 19.12C89.8916 18.951 90.1878 18.7151 90.3278 18.7947C90.969 19.2135 91.6549 19.455 92.3452 19.5053C93.0355 19.5555 93.7164 19.4135 94.3478 19.0874C94.9793 18.7613 95.5486 18.2578 96.0225 17.6063C96.4963 16.9549 96.8652 16.1687 97.1073 15.2938C97.6233 13.7379 97.8085 11.9822 97.6426 10.2219C97.5015 8.91757 96.7819 5.94598 95.6512 5.56084C95.13 5.39501 95.5351 5.06815 95.2665 5.60476C95.1439 6.00378 95.1375 6.46333 95.2485 6.89154C95.4478 7.86032 95.8759 8.72744 96.4609 9.34746C97.6322 10.6814 99.2915 11.1107 100.339 9.57663C102.474 6.5789 101.203 1.11994 99.7223 -2.21025C99.6184 -2.4356 99.9762 -2.53794 100.074 -2.37704L100.069 -2.37225Z" fill="#BA68C8"/>
<path d="M232.281 14.2339C232.281 14.2339 232.529 19.7594 229.225 22.8304L225.773 21.5289C225.773 21.5289 228.077 20.1476 229.225 14.2339H232.281Z" fill="#FF9F1C"/>
<path d="M163.617 0.863885C163.617 0.863885 165.627 5.79574 169.721 6.40081L172.181 3.11291C172.181 3.11291 169.629 3.36406 166.261 -1.03123L163.617 0.863885Z" fill="#FF9F1C" fill-opacity="0.6"/>
</g>
<path d="M19.262 29.61H23.966V31.43H19.262V29.61ZM19.43 35H17.162V25.2H24.568V27.02H19.43V35ZM26.1034 35V25.2H28.3714V33.152H33.2854V35H26.1034ZM33.3193 35L37.6873 25.2H39.9273L44.3093 35H41.9293L38.3453 26.348H39.2413L35.6433 35H33.3193ZM35.5033 32.9L36.1053 31.178H41.1453L41.7613 32.9H35.5033ZM46.8639 35V27.048H43.7279V25.2H52.2679V27.048H49.1319V35H46.8639ZM57.453 31.794V29.974H60.057C60.8503 29.974 61.415 29.8107 61.751 29.484C62.087 29.148 62.255 28.742 62.255 28.266C62.255 27.6967 62.073 27.2347 61.709 26.88C61.345 26.5253 60.7663 26.3527 59.973 26.362H56.879V25.2H65.727V26.362H62.353L62.829 25.732C63.4263 26.0027 63.8603 26.3853 64.131 26.88C64.4017 27.3747 64.537 27.9067 64.537 28.476C64.537 29.176 64.3643 29.7733 64.019 30.268C63.683 30.7627 63.1977 31.1407 62.563 31.402C61.9283 31.6633 61.1723 31.794 60.295 31.794H57.453ZM62.283 35L59.735 31.066H62.157L64.733 35H62.283ZM56.879 28.294V27.132H65.727V28.294H56.879ZM70.9869 35.168C70.1655 35.168 69.4469 35.0467 68.8309 34.804C68.2149 34.552 67.7342 34.202 67.3889 33.754C67.0435 33.2967 66.8709 32.7647 66.8709 32.158C66.8709 31.5513 67.0389 31.038 67.3749 30.618C67.7202 30.1887 68.2009 29.8667 68.8169 29.652C69.4329 29.428 70.1562 29.316 70.9869 29.316C71.8269 29.316 72.5549 29.428 73.1709 29.652C73.7962 29.8667 74.2769 30.1887 74.6129 30.618C74.9582 31.038 75.1309 31.5513 75.1309 32.158C75.1309 32.7647 74.9582 33.2967 74.6129 33.754C74.2675 34.202 73.7822 34.552 73.1569 34.804C72.5409 35.0467 71.8175 35.168 70.9869 35.168ZM70.9869 33.502C71.5562 33.502 72.0042 33.376 72.3309 33.124C72.6669 32.872 72.8349 32.5267 72.8349 32.088C72.8349 31.6493 72.6669 31.3087 72.3309 31.066C72.0042 30.814 71.5562 30.688 70.9869 30.688C70.4269 30.688 69.9835 30.814 69.6569 31.066C69.3302 31.3087 69.1669 31.6493 69.1669 32.088C69.1669 32.5267 69.3302 32.872 69.6569 33.124C69.9835 33.376 70.4269 33.502 70.9869 33.502ZM70.9869 30.464C70.2309 30.464 69.5682 30.3613 68.9989 30.156C68.4389 29.9507 68.0002 29.652 67.6829 29.26C67.3749 28.8587 67.2209 28.3827 67.2209 27.832C67.2209 27.2533 67.3795 26.7587 67.6969 26.348C68.0142 25.928 68.4575 25.606 69.0269 25.382C69.5962 25.1487 70.2495 25.032 70.9869 25.032C71.7429 25.032 72.4009 25.1487 72.9609 25.382C73.5302 25.606 73.9735 25.928 74.2909 26.348C74.6175 26.7587 74.7809 27.2533 74.7809 27.832C74.7809 28.3827 74.6222 28.8587 74.3049 29.26C73.9969 29.652 73.5582 29.9507 72.9889 30.156C72.4195 30.3613 71.7522 30.464 70.9869 30.464ZM70.9869 29.134C71.4629 29.134 71.8362 29.0267 72.1069 28.812C72.3869 28.5973 72.5269 28.3033 72.5269 27.93C72.5269 27.538 72.3822 27.2347 72.0929 27.02C71.8129 26.8053 71.4442 26.698 70.9869 26.698C70.5389 26.698 70.1749 26.8053 69.8949 27.02C69.6149 27.2347 69.4749 27.538 69.4749 27.93C69.4749 28.3033 69.6102 28.5973 69.8809 28.812C70.1515 29.0267 70.5202 29.134 70.9869 29.134ZM80.369 35.168C79.5664 35.168 78.8477 34.972 78.213 34.58C77.5784 34.1787 77.079 33.6 76.715 32.844C76.351 32.088 76.169 31.1733 76.169 30.1C76.169 29.0267 76.351 28.112 76.715 27.356C77.079 26.6 77.5784 26.026 78.213 25.634C78.8477 25.2327 79.5664 25.032 80.369 25.032C81.181 25.032 81.8997 25.2327 82.525 25.634C83.1597 26.026 83.659 26.6 84.023 27.356C84.387 28.112 84.569 29.0267 84.569 30.1C84.569 31.1733 84.387 32.088 84.023 32.844C83.659 33.6 83.1597 34.1787 82.525 34.58C81.8997 34.972 81.181 35.168 80.369 35.168ZM80.369 33.25C80.7517 33.25 81.083 33.1427 81.363 32.928C81.6524 32.7133 81.8764 32.3727 82.035 31.906C82.203 31.4393 82.287 30.8373 82.287 30.1C82.287 29.3627 82.203 28.7607 82.035 28.294C81.8764 27.8273 81.6524 27.4867 81.363 27.272C81.083 27.0573 80.7517 26.95 80.369 26.95C79.9957 26.95 79.6644 27.0573 79.375 27.272C79.095 27.4867 78.871 27.8273 78.703 28.294C78.5444 28.7607 78.465 29.3627 78.465 30.1C78.465 30.8373 78.5444 31.4393 78.703 31.906C78.871 32.3727 79.095 32.7133 79.375 32.928C79.6644 33.1427 79.9957 33.25 80.369 33.25ZM95.0118 35.168C94.2372 35.168 93.5185 35.042 92.8558 34.79C92.2025 34.538 91.6332 34.1833 91.1478 33.726C90.6718 33.2687 90.2985 32.732 90.0278 32.116C89.7665 31.5 89.6358 30.828 89.6358 30.1C89.6358 29.372 89.7665 28.7 90.0278 28.084C90.2985 27.468 90.6765 26.9313 91.1618 26.474C91.6472 26.0167 92.2165 25.662 92.8698 25.41C93.5232 25.158 94.2325 25.032 94.9978 25.032C95.7725 25.032 96.4818 25.158 97.1258 25.41C97.7792 25.662 98.3438 26.0167 98.8198 26.474C99.3052 26.9313 99.6832 27.468 99.9538 28.084C100.225 28.6907 100.36 29.3627 100.36 30.1C100.36 30.828 100.225 31.5047 99.9538 32.13C99.6832 32.746 99.3052 33.2827 98.8198 33.74C98.3438 34.188 97.7792 34.538 97.1258 34.79C96.4818 35.042 95.7772 35.168 95.0118 35.168ZM94.9978 33.236C95.4365 33.236 95.8378 33.1613 96.2018 33.012C96.5752 32.8627 96.9018 32.648 97.1818 32.368C97.4618 32.088 97.6765 31.7567 97.8258 31.374C97.9845 30.9913 98.0638 30.5667 98.0638 30.1C98.0638 29.6333 97.9845 29.2087 97.8258 28.826C97.6765 28.4433 97.4618 28.112 97.1818 27.832C96.9112 27.552 96.5892 27.3373 96.2158 27.188C95.8425 27.0387 95.4365 26.964 94.9978 26.964C94.5592 26.964 94.1532 27.0387 93.7798 27.188C93.4158 27.3373 93.0938 27.552 92.8138 27.832C92.5338 28.112 92.3145 28.4433 92.1558 28.826C92.0065 29.2087 91.9318 29.6333 91.9318 30.1C91.9318 30.5573 92.0065 30.982 92.1558 31.374C92.3145 31.7567 92.5292 32.088 92.7998 32.368C93.0798 32.648 93.4065 32.8627 93.7798 33.012C94.1532 33.1613 94.5592 33.236 94.9978 33.236ZM104.164 29.61H108.868V31.43H104.164V29.61ZM104.332 35H102.064V25.2H109.47V27.02H104.332V35ZM113.106 29.61H117.81V31.43H113.106V29.61ZM113.274 35H111.006V25.2H118.412V27.02H113.274V35Z" fill="#198854"/>
<path d="M126.997 35.084C126.25 35.084 125.588 34.9207 125.009 34.594C124.43 34.2673 123.973 33.8193 123.637 33.25C123.301 32.6713 123.133 32.018 123.133 31.29C123.133 30.5527 123.301 29.8993 123.637 29.33C123.973 28.7607 124.43 28.3173 125.009 28C125.588 27.6733 126.25 27.51 126.997 27.51C127.734 27.51 128.392 27.6733 128.971 28C129.559 28.3173 130.016 28.7607 130.343 29.33C130.679 29.89 130.847 30.5433 130.847 31.29C130.847 32.0273 130.679 32.6807 130.343 33.25C130.016 33.8193 129.559 34.2673 128.971 34.594C128.392 34.9207 127.734 35.084 126.997 35.084ZM126.997 33.908C127.473 33.908 127.898 33.8007 128.271 33.586C128.654 33.3713 128.952 33.068 129.167 32.676C129.382 32.2747 129.489 31.8127 129.489 31.29C129.489 30.758 129.382 30.3007 129.167 29.918C128.952 29.526 128.654 29.2227 128.271 29.008C127.898 28.7933 127.473 28.686 126.997 28.686C126.521 28.686 126.096 28.7933 125.723 29.008C125.35 29.2227 125.051 29.526 124.827 29.918C124.603 30.3007 124.491 30.758 124.491 31.29C124.491 31.8127 124.603 32.2747 124.827 32.676C125.051 33.068 125.35 33.3713 125.723 33.586C126.096 33.8007 126.521 33.908 126.997 33.908ZM136.668 27.51C137.274 27.51 137.806 27.6267 138.264 27.86C138.73 28.0933 139.094 28.448 139.356 28.924C139.617 29.4 139.748 30.002 139.748 30.73V35H138.404V30.884C138.404 30.1653 138.226 29.624 137.872 29.26C137.526 28.896 137.036 28.714 136.402 28.714C135.926 28.714 135.51 28.8073 135.156 28.994C134.801 29.1807 134.526 29.456 134.33 29.82C134.143 30.184 134.05 30.6367 134.05 31.178V35H132.706V27.58H133.994V29.582L133.784 29.05C134.026 28.5647 134.4 28.1867 134.904 27.916C135.408 27.6453 135.996 27.51 136.668 27.51ZM146.191 35V26.922C146.191 26.194 146.401 25.6153 146.821 25.186C147.25 24.7473 147.857 24.528 148.641 24.528C148.93 24.528 149.205 24.5653 149.467 24.64C149.737 24.7053 149.966 24.8127 150.153 24.962L149.747 25.984C149.607 25.872 149.448 25.788 149.271 25.732C149.093 25.6667 148.907 25.634 148.711 25.634C148.319 25.634 148.02 25.746 147.815 25.97C147.609 26.1847 147.507 26.5067 147.507 26.936V27.93L147.535 28.546V35H146.191ZM144.931 28.686V27.58H149.663V28.686H144.931ZM150.937 35V27.58H152.281V35H150.937ZM151.609 26.152C151.347 26.152 151.128 26.068 150.951 25.9C150.783 25.732 150.699 25.5267 150.699 25.284C150.699 25.032 150.783 24.822 150.951 24.654C151.128 24.486 151.347 24.402 151.609 24.402C151.87 24.402 152.085 24.486 152.253 24.654C152.43 24.8127 152.519 25.0133 152.519 25.256C152.519 25.508 152.435 25.7227 152.267 25.9C152.099 26.068 151.879 26.152 151.609 26.152ZM154.84 35V27.58H156.128V29.596L156.002 29.092C156.208 28.5787 156.553 28.1867 157.038 27.916C157.524 27.6453 158.121 27.51 158.83 27.51V28.812C158.774 28.8027 158.718 28.798 158.662 28.798C158.616 28.798 158.569 28.798 158.522 28.798C157.804 28.798 157.234 29.0127 156.814 29.442C156.394 29.8713 156.184 30.492 156.184 31.304V35H154.84ZM162.697 35.084C162.081 35.084 161.493 35 160.933 34.832C160.382 34.664 159.948 34.4587 159.631 34.216L160.191 33.152C160.508 33.3667 160.9 33.5487 161.367 33.698C161.834 33.8473 162.31 33.922 162.795 33.922C163.42 33.922 163.868 33.8333 164.139 33.656C164.419 33.4787 164.559 33.2313 164.559 32.914C164.559 32.6807 164.475 32.4987 164.307 32.368C164.139 32.2373 163.915 32.1393 163.635 32.074C163.364 32.0087 163.061 31.9527 162.725 31.906C162.389 31.85 162.053 31.7847 161.717 31.71C161.381 31.626 161.073 31.514 160.793 31.374C160.513 31.2247 160.289 31.024 160.121 30.772C159.953 30.5107 159.869 30.1653 159.869 29.736C159.869 29.288 159.995 28.896 160.247 28.56C160.499 28.224 160.854 27.9673 161.311 27.79C161.778 27.6033 162.328 27.51 162.963 27.51C163.448 27.51 163.938 27.5707 164.433 27.692C164.937 27.804 165.348 27.9673 165.665 28.182L165.091 29.246C164.755 29.022 164.405 28.868 164.041 28.784C163.677 28.7 163.313 28.658 162.949 28.658C162.361 28.658 161.922 28.756 161.633 28.952C161.344 29.1387 161.199 29.3813 161.199 29.68C161.199 29.932 161.283 30.128 161.451 30.268C161.628 30.3987 161.852 30.5013 162.123 30.576C162.403 30.6507 162.711 30.716 163.047 30.772C163.383 30.8187 163.719 30.884 164.055 30.968C164.391 31.0427 164.694 31.15 164.965 31.29C165.245 31.43 165.469 31.626 165.637 31.878C165.814 32.13 165.903 32.466 165.903 32.886C165.903 33.334 165.772 33.7213 165.511 34.048C165.25 34.3747 164.881 34.6313 164.405 34.818C163.929 34.9953 163.36 35.084 162.697 35.084ZM170.131 35.084C169.384 35.084 168.805 34.8833 168.395 34.482C167.984 34.0807 167.779 33.5067 167.779 32.76V25.956H169.123V32.704C169.123 33.1053 169.221 33.4133 169.417 33.628C169.622 33.8427 169.911 33.95 170.285 33.95C170.705 33.95 171.055 33.8333 171.335 33.6L171.755 34.566C171.549 34.7433 171.302 34.874 171.013 34.958C170.733 35.042 170.439 35.084 170.131 35.084ZM166.519 28.686V27.58H171.251V28.686H166.519ZM181.073 35.084C180.439 35.084 179.865 34.944 179.351 34.664C178.847 34.3747 178.446 33.95 178.147 33.39C177.858 32.83 177.713 32.13 177.713 31.29C177.713 30.45 177.863 29.75 178.161 29.19C178.469 28.63 178.875 28.21 179.379 27.93C179.893 27.65 180.457 27.51 181.073 27.51C181.801 27.51 182.445 27.6687 183.005 27.986C183.565 28.3033 184.009 28.7467 184.335 29.316C184.662 29.876 184.825 30.534 184.825 31.29C184.825 32.046 184.662 32.7087 184.335 33.278C184.009 33.8473 183.565 34.2907 183.005 34.608C182.445 34.9253 181.801 35.084 181.073 35.084ZM177.139 35V24.612H178.483V29.554L178.343 31.276L178.427 32.998V35H177.139ZM180.961 33.908C181.437 33.908 181.862 33.8007 182.235 33.586C182.618 33.3713 182.917 33.068 183.131 32.676C183.355 32.2747 183.467 31.8127 183.467 31.29C183.467 30.758 183.355 30.3007 183.131 29.918C182.917 29.526 182.618 29.2227 182.235 29.008C181.862 28.7933 181.437 28.686 180.961 28.686C180.495 28.686 180.07 28.7933 179.687 29.008C179.314 29.2227 179.015 29.526 178.791 29.918C178.577 30.3007 178.469 30.758 178.469 31.29C178.469 31.8127 178.577 32.2747 178.791 32.676C179.015 33.068 179.314 33.3713 179.687 33.586C180.07 33.8007 180.495 33.908 180.961 33.908ZM189.86 35.084C189.114 35.084 188.451 34.9207 187.872 34.594C187.294 34.2673 186.836 33.8193 186.5 33.25C186.164 32.6713 185.996 32.018 185.996 31.29C185.996 30.5527 186.164 29.8993 186.5 29.33C186.836 28.7607 187.294 28.3173 187.872 28C188.451 27.6733 189.114 27.51 189.86 27.51C190.598 27.51 191.256 27.6733 191.834 28C192.422 28.3173 192.88 28.7607 193.206 29.33C193.542 29.89 193.71 30.5433 193.71 31.29C193.71 32.0273 193.542 32.6807 193.206 33.25C192.88 33.8193 192.422 34.2673 191.834 34.594C191.256 34.9207 190.598 35.084 189.86 35.084ZM189.86 33.908C190.336 33.908 190.761 33.8007 191.134 33.586C191.517 33.3713 191.816 33.068 192.03 32.676C192.245 32.2747 192.352 31.8127 192.352 31.29C192.352 30.758 192.245 30.3007 192.03 29.918C191.816 29.526 191.517 29.2227 191.134 29.008C190.761 28.7933 190.336 28.686 189.86 28.686C189.384 28.686 188.96 28.7933 188.586 29.008C188.213 29.2227 187.914 29.526 187.69 29.918C187.466 30.3007 187.354 30.758 187.354 31.29C187.354 31.8127 187.466 32.2747 187.69 32.676C187.914 33.068 188.213 33.3713 188.586 33.586C188.96 33.8007 189.384 33.908 189.86 33.908ZM198.747 35.084C198 35.084 197.338 34.9207 196.759 34.594C196.18 34.2673 195.723 33.8193 195.387 33.25C195.051 32.6713 194.883 32.018 194.883 31.29C194.883 30.5527 195.051 29.8993 195.387 29.33C195.723 28.7607 196.18 28.3173 196.759 28C197.338 27.6733 198 27.51 198.747 27.51C199.484 27.51 200.142 27.6733 200.721 28C201.309 28.3173 201.766 28.7607 202.093 29.33C202.429 29.89 202.597 30.5433 202.597 31.29C202.597 32.0273 202.429 32.6807 202.093 33.25C201.766 33.8193 201.309 34.2673 200.721 34.594C200.142 34.9207 199.484 35.084 198.747 35.084ZM198.747 33.908C199.223 33.908 199.648 33.8007 200.021 33.586C200.404 33.3713 200.702 33.068 200.917 32.676C201.132 32.2747 201.239 31.8127 201.239 31.29C201.239 30.758 201.132 30.3007 200.917 29.918C200.702 29.526 200.404 29.2227 200.021 29.008C199.648 28.7933 199.223 28.686 198.747 28.686C198.271 28.686 197.846 28.7933 197.473 29.008C197.1 29.2227 196.801 29.526 196.577 29.918C196.353 30.3007 196.241 30.758 196.241 31.29C196.241 31.8127 196.353 32.2747 196.577 32.676C196.801 33.068 197.1 33.3713 197.473 33.586C197.846 33.8007 198.271 33.908 198.747 33.908ZM205.548 33.208L205.576 31.486L209.846 27.58H211.47L208.194 30.8L207.466 31.416L205.548 33.208ZM204.456 35V24.612H205.8V35H204.456ZM210.126 35L207.214 31.388L208.082 30.31L211.778 35H210.126ZM213.083 35V27.58H214.427V35H213.083ZM213.755 26.152C213.493 26.152 213.274 26.068 213.097 25.9C212.929 25.732 212.845 25.5267 212.845 25.284C212.845 25.032 212.929 24.822 213.097 24.654C213.274 24.486 213.493 24.402 213.755 24.402C214.016 24.402 214.231 24.486 214.399 24.654C214.576 24.8127 214.665 25.0133 214.665 25.256C214.665 25.508 214.581 25.7227 214.413 25.9C214.245 26.068 214.025 26.152 213.755 26.152ZM220.955 27.51C221.561 27.51 222.093 27.6267 222.551 27.86C223.017 28.0933 223.381 28.448 223.643 28.924C223.904 29.4 224.035 30.002 224.035 30.73V35H222.691V30.884C222.691 30.1653 222.513 29.624 222.159 29.26C221.813 28.896 221.323 28.714 220.689 28.714C220.213 28.714 219.797 28.8073 219.443 28.994C219.088 29.1807 218.813 29.456 218.617 29.82C218.43 30.184 218.337 30.6367 218.337 31.178V35H216.993V27.58H218.281V29.582L218.071 29.05C218.313 28.5647 218.687 28.1867 219.191 27.916C219.695 27.6453 220.283 27.51 220.955 27.51ZM229.77 37.8C229.089 37.8 228.426 37.702 227.782 37.506C227.147 37.3193 226.629 37.0487 226.228 36.694L226.872 35.658C227.217 35.9567 227.642 36.19 228.146 36.358C228.65 36.5353 229.177 36.624 229.728 36.624C230.605 36.624 231.249 36.4187 231.66 36.008C232.071 35.5973 232.276 34.972 232.276 34.132V32.564L232.416 31.094L232.346 29.61V27.58H233.62V33.992C233.62 35.2987 233.293 36.26 232.64 36.876C231.987 37.492 231.03 37.8 229.77 37.8ZM229.602 34.692C228.883 34.692 228.239 34.5427 227.67 34.244C227.11 33.936 226.662 33.5113 226.326 32.97C225.999 32.4287 225.836 31.8033 225.836 31.094C225.836 30.3753 225.999 29.75 226.326 29.218C226.662 28.6767 227.11 28.2567 227.67 27.958C228.239 27.6593 228.883 27.51 229.602 27.51C230.237 27.51 230.815 27.6407 231.338 27.902C231.861 28.154 232.276 28.546 232.584 29.078C232.901 29.61 233.06 30.282 233.06 31.094C233.06 31.8967 232.901 32.564 232.584 33.096C232.276 33.628 231.861 34.0293 231.338 34.3C230.815 34.5613 230.237 34.692 229.602 34.692ZM229.756 33.516C230.251 33.516 230.689 33.4133 231.072 33.208C231.455 33.0027 231.753 32.718 231.968 32.354C232.192 31.99 232.304 31.57 232.304 31.094C232.304 30.618 232.192 30.198 231.968 29.834C231.753 29.47 231.455 29.19 231.072 28.994C230.689 28.7887 230.251 28.686 229.756 28.686C229.261 28.686 228.818 28.7887 228.426 28.994C228.043 29.19 227.74 29.47 227.516 29.834C227.301 30.198 227.194 30.618 227.194 31.094C227.194 31.57 227.301 31.99 227.516 32.354C227.74 32.718 228.043 33.0027 228.426 33.208C228.818 33.4133 229.261 33.516 229.756 33.516Z" fill="#3E3E52"/>
<rect x="41" y="44" width="169" height="36" rx="8" fill="white"/>
<rect x="41" y="44" width="169" height="36" rx="8" stroke="#27A56A" stroke-linecap="round" stroke-dasharray="3 3"/>
<path d="M52.768 66.072C52.224 66.072 51.744 65.972 51.328 65.772C50.92 65.572 50.6 65.268 50.368 64.86C50.144 64.444 50.032 63.924 50.032 63.3V59.64H51.184V63.168C51.184 63.792 51.332 64.26 51.628 64.572C51.932 64.884 52.356 65.04 52.9 65.04C53.3 65.04 53.648 64.96 53.944 64.8C54.24 64.632 54.468 64.392 54.628 64.08C54.788 63.76 54.868 63.376 54.868 62.928V59.64H56.02V66H54.928V64.284L55.108 64.74C54.9 65.164 54.588 65.492 54.172 65.724C53.756 65.956 53.288 66.072 52.768 66.072ZM60.0371 66.072C59.5091 66.072 59.0051 66 58.5251 65.856C58.0531 65.712 57.6811 65.536 57.4091 65.328L57.8891 64.416C58.1611 64.6 58.4971 64.756 58.8971 64.884C59.2971 65.012 59.7051 65.076 60.1211 65.076C60.6571 65.076 61.0411 65 61.2731 64.848C61.5131 64.696 61.6331 64.484 61.6331 64.212C61.6331 64.012 61.5611 63.856 61.4171 63.744C61.2731 63.632 61.0811 63.548 60.8411 63.492C60.6091 63.436 60.3491 63.388 60.0611 63.348C59.7731 63.3 59.4851 63.244 59.1971 63.18C58.9091 63.108 58.6451 63.012 58.4051 62.892C58.1651 62.764 57.9731 62.592 57.8291 62.376C57.6851 62.152 57.6131 61.856 57.6131 61.488C57.6131 61.104 57.7211 60.768 57.9371 60.48C58.1531 60.192 58.4571 59.972 58.8491 59.82C59.2491 59.66 59.7211 59.58 60.2651 59.58C60.6811 59.58 61.1011 59.632 61.5251 59.736C61.9571 59.832 62.3091 59.972 62.5811 60.156L62.0891 61.068C61.8011 60.876 61.5011 60.744 61.1891 60.672C60.8771 60.6 60.5651 60.564 60.2531 60.564C59.7491 60.564 59.3731 60.648 59.1251 60.816C58.8771 60.976 58.7531 61.184 58.7531 61.44C58.7531 61.656 58.8251 61.824 58.9691 61.944C59.1211 62.056 59.3131 62.144 59.5451 62.208C59.7851 62.272 60.0491 62.328 60.3371 62.376C60.6251 62.416 60.9131 62.472 61.2011 62.544C61.4891 62.608 61.7491 62.7 61.9811 62.82C62.2211 62.94 62.4131 63.108 62.5571 63.324C62.7091 63.54 62.7851 63.828 62.7851 64.188C62.7851 64.572 62.6731 64.904 62.4491 65.184C62.2251 65.464 61.9091 65.684 61.5011 65.844C61.0931 65.996 60.6051 66.072 60.0371 66.072ZM67.0568 66.072C66.3768 66.072 65.7768 65.932 65.2568 65.652C64.7448 65.372 64.3448 64.988 64.0568 64.5C63.7768 64.012 63.6368 63.452 63.6368 62.82C63.6368 62.188 63.7728 61.628 64.0448 61.14C64.3248 60.652 64.7048 60.272 65.1848 60C65.6728 59.72 66.2208 59.58 66.8288 59.58C67.4448 59.58 67.9888 59.716 68.4608 59.988C68.9328 60.26 69.3008 60.644 69.5648 61.14C69.8368 61.628 69.9728 62.2 69.9728 62.856C69.9728 62.904 69.9688 62.96 69.9608 63.024C69.9608 63.088 69.9568 63.148 69.9488 63.204H64.5368V62.376H69.3488L68.8808 62.664C68.8888 62.256 68.8048 61.892 68.6288 61.572C68.4528 61.252 68.2088 61.004 67.8968 60.828C67.5928 60.644 67.2368 60.552 66.8288 60.552C66.4288 60.552 66.0728 60.644 65.7608 60.828C65.4488 61.004 65.2048 61.256 65.0288 61.584C64.8528 61.904 64.7648 62.272 64.7648 62.688V62.88C64.7648 63.304 64.8608 63.684 65.0528 64.02C65.2528 64.348 65.5288 64.604 65.8808 64.788C66.2328 64.972 66.6368 65.064 67.0928 65.064C67.4688 65.064 67.8088 65 68.1128 64.872C68.4248 64.744 68.6968 64.552 68.9288 64.296L69.5648 65.04C69.2768 65.376 68.9168 65.632 68.4848 65.808C68.0608 65.984 67.5848 66.072 67.0568 66.072ZM77.5671 66.072C76.9191 66.072 76.3391 65.932 75.8271 65.652C75.3231 65.372 74.9271 64.988 74.6391 64.5C74.3511 64.012 74.2071 63.452 74.2071 62.82C74.2071 62.188 74.3511 61.628 74.6391 61.14C74.9271 60.652 75.3231 60.272 75.8271 60C76.3391 59.72 76.9191 59.58 77.5671 59.58C78.1431 59.58 78.6551 59.696 79.1031 59.928C79.5591 60.152 79.9111 60.488 80.1591 60.936L79.2831 61.5C79.0751 61.188 78.8191 60.96 78.5151 60.816C78.2191 60.664 77.8991 60.588 77.5551 60.588C77.1391 60.588 76.7671 60.68 76.4391 60.864C76.1111 61.048 75.8511 61.308 75.6591 61.644C75.4671 61.972 75.3711 62.364 75.3711 62.82C75.3711 63.276 75.4671 63.672 75.6591 64.008C75.8511 64.344 76.1111 64.604 76.4391 64.788C76.7671 64.972 77.1391 65.064 77.5551 65.064C77.8991 65.064 78.2191 64.992 78.5151 64.848C78.8191 64.696 79.0751 64.464 79.2831 64.152L80.1591 64.704C79.9111 65.144 79.5591 65.484 79.1031 65.724C78.6551 65.956 78.1431 66.072 77.5671 66.072ZM84.2808 66.072C83.6408 66.072 83.0728 65.932 82.5768 65.652C82.0808 65.372 81.6888 64.988 81.4008 64.5C81.1128 64.004 80.9688 63.444 80.9688 62.82C80.9688 62.188 81.1128 61.628 81.4008 61.14C81.6888 60.652 82.0808 60.272 82.5768 60C83.0728 59.72 83.6408 59.58 84.2808 59.58C84.9128 59.58 85.4768 59.72 85.9728 60C86.4768 60.272 86.8688 60.652 87.1488 61.14C87.4368 61.62 87.5808 62.18 87.5808 62.82C87.5808 63.452 87.4368 64.012 87.1488 64.5C86.8688 64.988 86.4768 65.372 85.9728 65.652C85.4768 65.932 84.9128 66.072 84.2808 66.072ZM84.2808 65.064C84.6888 65.064 85.0528 64.972 85.3728 64.788C85.7008 64.604 85.9568 64.344 86.1408 64.008C86.3248 63.664 86.4168 63.268 86.4168 62.82C86.4168 62.364 86.3248 61.972 86.1408 61.644C85.9568 61.308 85.7008 61.048 85.3728 60.864C85.0528 60.68 84.6888 60.588 84.2808 60.588C83.8728 60.588 83.5088 60.68 83.1888 60.864C82.8688 61.048 82.6128 61.308 82.4208 61.644C82.2288 61.972 82.1328 62.364 82.1328 62.82C82.1328 63.268 82.2288 63.664 82.4208 64.008C82.6128 64.344 82.8688 64.604 83.1888 64.788C83.5088 64.972 83.8728 65.064 84.2808 65.064ZM91.802 66.072C91.186 66.072 90.634 65.936 90.146 65.664C89.666 65.392 89.286 65.012 89.006 64.524C88.726 64.036 88.586 63.468 88.586 62.82C88.586 62.172 88.726 61.608 89.006 61.128C89.286 60.64 89.666 60.26 90.146 59.988C90.634 59.716 91.186 59.58 91.802 59.58C92.338 59.58 92.822 59.7 93.254 59.94C93.686 60.18 94.03 60.54 94.286 61.02C94.55 61.5 94.682 62.1 94.682 62.82C94.682 63.54 94.554 64.14 94.298 64.62C94.05 65.1 93.71 65.464 93.278 65.712C92.846 65.952 92.354 66.072 91.802 66.072ZM91.898 65.064C92.298 65.064 92.658 64.972 92.978 64.788C93.306 64.604 93.562 64.344 93.746 64.008C93.938 63.664 94.034 63.268 94.034 62.82C94.034 62.364 93.938 61.972 93.746 61.644C93.562 61.308 93.306 61.048 92.978 60.864C92.658 60.68 92.298 60.588 91.898 60.588C91.49 60.588 91.126 60.68 90.806 60.864C90.486 61.048 90.23 61.308 90.038 61.644C89.846 61.972 89.75 62.364 89.75 62.82C89.75 63.268 89.846 63.664 90.038 64.008C90.23 64.344 90.486 64.604 90.806 64.788C91.126 64.972 91.49 65.064 91.898 65.064ZM94.07 66V64.284L94.142 62.808L94.022 61.332V57.096H95.174V66H94.07ZM100.186 66.072C99.5057 66.072 98.9057 65.932 98.3857 65.652C97.8737 65.372 97.4737 64.988 97.1857 64.5C96.9057 64.012 96.7657 63.452 96.7657 62.82C96.7657 62.188 96.9017 61.628 97.1737 61.14C97.4537 60.652 97.8337 60.272 98.3137 60C98.8017 59.72 99.3497 59.58 99.9577 59.58C100.574 59.58 101.118 59.716 101.59 59.988C102.062 60.26 102.43 60.644 102.694 61.14C102.966 61.628 103.102 62.2 103.102 62.856C103.102 62.904 103.098 62.96 103.09 63.024C103.09 63.088 103.086 63.148 103.078 63.204H97.6657V62.376H102.478L102.01 62.664C102.018 62.256 101.934 61.892 101.758 61.572C101.582 61.252 101.338 61.004 101.026 60.828C100.722 60.644 100.366 60.552 99.9577 60.552C99.5577 60.552 99.2017 60.644 98.8897 60.828C98.5777 61.004 98.3337 61.256 98.1577 61.584C97.9817 61.904 97.8937 62.272 97.8937 62.688V62.88C97.8937 63.304 97.9897 63.684 98.1817 64.02C98.3817 64.348 98.6577 64.604 99.0097 64.788C99.3617 64.972 99.7657 65.064 100.222 65.064C100.598 65.064 100.938 65 101.242 64.872C101.554 64.744 101.826 64.552 102.058 64.296L102.694 65.04C102.406 65.376 102.046 65.632 101.614 65.808C101.19 65.984 100.714 66.072 100.186 66.072ZM104.977 61.224C104.753 61.224 104.561 61.148 104.401 60.996C104.241 60.836 104.161 60.636 104.161 60.396C104.161 60.156 104.241 59.96 104.401 59.808C104.561 59.656 104.753 59.58 104.977 59.58C105.193 59.58 105.377 59.656 105.529 59.808C105.689 59.96 105.769 60.156 105.769 60.396C105.769 60.636 105.689 60.836 105.529 60.996C105.377 61.148 105.193 61.224 104.977 61.224ZM104.977 66.072C104.753 66.072 104.561 65.996 104.401 65.844C104.241 65.684 104.161 65.484 104.161 65.244C104.161 65.004 104.241 64.808 104.401 64.656C104.561 64.504 104.753 64.428 104.977 64.428C105.193 64.428 105.377 64.504 105.529 64.656C105.689 64.808 105.769 65.004 105.769 65.244C105.769 65.484 105.689 65.684 105.529 65.844C105.377 65.996 105.193 66.072 104.977 66.072Z" fill="#1D1D1D"/>
<path d="M116.242 68.192C115.346 68.192 114.488 68.0747 113.666 67.84C112.845 67.5947 112.184 67.28 111.682 66.896L112.562 64.944C113.042 65.2853 113.608 65.568 114.258 65.792C114.92 66.0053 115.586 66.112 116.258 66.112C116.77 66.112 117.181 66.064 117.49 65.968C117.81 65.8613 118.045 65.7173 118.194 65.536C118.344 65.3547 118.418 65.1467 118.418 64.912C118.418 64.6133 118.301 64.3787 118.066 64.208C117.832 64.0267 117.522 63.8827 117.138 63.776C116.754 63.6587 116.328 63.552 115.858 63.456C115.4 63.3493 114.936 63.2213 114.466 63.072C114.008 62.9227 113.586 62.7307 113.202 62.496C112.818 62.2613 112.504 61.952 112.258 61.568C112.024 61.184 111.906 60.6933 111.906 60.096C111.906 59.456 112.077 58.8747 112.418 58.352C112.77 57.8187 113.293 57.3973 113.986 57.088C114.69 56.768 115.57 56.608 116.626 56.608C117.33 56.608 118.024 56.6933 118.706 56.864C119.389 57.024 119.992 57.2693 120.514 57.6L119.714 59.568C119.192 59.2693 118.669 59.0507 118.146 58.912C117.624 58.7627 117.112 58.688 116.61 58.688C116.109 58.688 115.698 58.7467 115.378 58.864C115.058 58.9813 114.829 59.136 114.69 59.328C114.552 59.5093 114.482 59.7227 114.482 59.968C114.482 60.256 114.6 60.4907 114.834 60.672C115.069 60.8427 115.378 60.9813 115.762 61.088C116.146 61.1947 116.568 61.3013 117.026 61.408C117.496 61.5147 117.96 61.6373 118.418 61.776C118.888 61.9147 119.314 62.1013 119.698 62.336C120.082 62.5707 120.392 62.88 120.626 63.264C120.872 63.648 120.994 64.1333 120.994 64.72C120.994 65.3493 120.818 65.9253 120.466 66.448C120.114 66.9707 119.586 67.392 118.882 67.712C118.189 68.032 117.309 68.192 116.242 68.192ZM127.742 68.192C126.152 68.192 124.91 67.7493 124.014 66.864C123.118 65.9787 122.67 64.7147 122.67 63.072V56.8H125.262V62.976C125.262 64.0427 125.48 64.8107 125.918 65.28C126.355 65.7493 126.968 65.984 127.758 65.984C128.547 65.984 129.16 65.7493 129.598 65.28C130.035 64.8107 130.253 64.0427 130.253 62.976V56.8H132.814V63.072C132.814 64.7147 132.366 65.9787 131.47 66.864C130.574 67.7493 129.331 68.192 127.742 68.192ZM135.375 68V56.8H140.223C141.226 56.8 142.09 56.9653 142.815 57.296C143.54 57.616 144.1 58.08 144.495 58.688C144.89 59.296 145.087 60.0213 145.087 60.864C145.087 61.696 144.89 62.416 144.495 63.024C144.1 63.632 143.54 64.1013 142.815 64.432C142.09 64.752 141.226 64.912 140.223 64.912H136.815L137.967 63.744V68H135.375ZM137.967 64.032L136.815 62.8H140.079C140.879 62.8 141.476 62.6293 141.871 62.288C142.266 61.9467 142.463 61.472 142.463 60.864C142.463 60.2453 142.266 59.7653 141.871 59.424C141.476 59.0827 140.879 58.912 140.079 58.912H136.815L137.967 57.68V64.032ZM149.321 61.312H154.713V63.328H149.321V61.312ZM149.513 65.92H155.609V68H146.937V56.8H155.401V58.88H149.513V65.92ZM157.672 68V56.8H162.52C163.522 56.8 164.386 56.9653 165.112 57.296C165.837 57.616 166.397 58.08 166.792 58.688C167.186 59.296 167.384 60.0213 167.384 60.864C167.384 61.696 167.186 62.416 166.792 63.024C166.397 63.6213 165.837 64.08 165.112 64.4C164.386 64.72 163.522 64.88 162.52 64.88H159.112L160.264 63.744V68H157.672ZM164.792 68L161.992 63.936H164.76L167.592 68H164.792ZM160.264 64.032L159.112 62.816H162.376C163.176 62.816 163.773 62.6453 164.168 62.304C164.562 61.952 164.76 61.472 164.76 60.864C164.76 60.2453 164.562 59.7653 164.168 59.424C163.773 59.0827 163.176 58.912 162.376 58.912H159.112L160.264 57.68V64.032ZM169.437 68V56.8H174.909C176.317 56.8 177.373 57.0667 178.077 57.6C178.792 58.1333 179.149 58.8373 179.149 59.712C179.149 60.2987 179.005 60.8107 178.717 61.248C178.429 61.6747 178.035 62.0053 177.533 62.24C177.032 62.4747 176.456 62.592 175.805 62.592L176.109 61.936C176.813 61.936 177.437 62.0533 177.981 62.288C178.525 62.512 178.947 62.848 179.245 63.296C179.555 63.744 179.709 64.2933 179.709 64.944C179.709 65.904 179.331 66.656 178.573 67.2C177.816 67.7333 176.701 68 175.229 68H169.437ZM172.013 66.048H175.037C175.709 66.048 176.216 65.9413 176.557 65.728C176.909 65.504 177.085 65.152 177.085 64.672C177.085 64.2027 176.909 63.856 176.557 63.632C176.216 63.3973 175.709 63.28 175.037 63.28H171.821V61.392H174.589C175.219 61.392 175.699 61.2853 176.029 61.072C176.371 60.848 176.541 60.512 176.541 60.064C176.541 59.6267 176.371 59.3013 176.029 59.088C175.699 58.864 175.219 58.752 174.589 58.752H172.013V66.048ZM185.608 68.192C184.669 68.192 183.848 68.0533 183.144 67.776C182.44 67.488 181.89 67.088 181.496 66.576C181.101 66.0533 180.904 65.4453 180.904 64.752C180.904 64.0587 181.096 63.472 181.48 62.992C181.874 62.5013 182.424 62.1333 183.128 61.888C183.832 61.632 184.658 61.504 185.608 61.504C186.568 61.504 187.4 61.632 188.104 61.888C188.818 62.1333 189.368 62.5013 189.752 62.992C190.146 63.472 190.344 64.0587 190.344 64.752C190.344 65.4453 190.146 66.0533 189.752 66.576C189.357 67.088 188.802 67.488 188.088 67.776C187.384 68.0533 186.557 68.192 185.608 68.192ZM185.608 66.288C186.258 66.288 186.77 66.144 187.144 65.856C187.528 65.568 187.72 65.1733 187.72 64.672C187.72 64.1707 187.528 63.7813 187.144 63.504C186.77 63.216 186.258 63.072 185.608 63.072C184.968 63.072 184.461 63.216 184.088 63.504C183.714 63.7813 183.528 64.1707 183.528 64.672C183.528 65.1733 183.714 65.568 184.088 65.856C184.461 66.144 184.968 66.288 185.608 66.288ZM185.608 62.816C184.744 62.816 183.986 62.6987 183.336 62.464C182.696 62.2293 182.194 61.888 181.832 61.44C181.48 60.9813 181.304 60.4373 181.304 59.808C181.304 59.1467 181.485 58.5813 181.848 58.112C182.21 57.632 182.717 57.264 183.368 57.008C184.018 56.7413 184.765 56.608 185.608 56.608C186.472 56.608 187.224 56.7413 187.864 57.008C188.514 57.264 189.021 57.632 189.384 58.112C189.757 58.5813 189.944 59.1467 189.944 59.808C189.944 60.4373 189.762 60.9813 189.4 61.44C189.048 61.888 188.546 62.2293 187.896 62.464C187.245 62.6987 186.482 62.816 185.608 62.816ZM185.608 61.296C186.152 61.296 186.578 61.1733 186.888 60.928C187.208 60.6827 187.368 60.3467 187.368 59.92C187.368 59.472 187.202 59.1253 186.872 58.88C186.552 58.6347 186.13 58.512 185.608 58.512C185.096 58.512 184.68 58.6347 184.36 58.88C184.04 59.1253 183.88 59.472 183.88 59.92C183.88 60.3467 184.034 60.6827 184.344 60.928C184.653 61.1733 185.074 61.296 185.608 61.296ZM196.33 68.192C195.413 68.192 194.592 67.968 193.866 67.52C193.141 67.0613 192.57 66.4 192.154 65.536C191.738 64.672 191.53 63.6267 191.53 62.4C191.53 61.1733 191.738 60.128 192.154 59.264C192.57 58.4 193.141 57.744 193.866 57.296C194.592 56.8373 195.413 56.608 196.33 56.608C197.258 56.608 198.08 56.8373 198.794 57.296C199.52 57.744 200.09 58.4 200.506 59.264C200.922 60.128 201.13 61.1733 201.13 62.4C201.13 63.6267 200.922 64.672 200.506 65.536C200.09 66.4 199.52 67.0613 198.794 67.52C198.08 67.968 197.258 68.192 196.33 68.192ZM196.33 66C196.768 66 197.146 65.8773 197.466 65.632C197.797 65.3867 198.053 64.9973 198.234 64.464C198.426 63.9307 198.522 63.2427 198.522 62.4C198.522 61.5573 198.426 60.8693 198.234 60.336C198.053 59.8027 197.797 59.4133 197.466 59.168C197.146 58.9227 196.768 58.8 196.33 58.8C195.904 58.8 195.525 58.9227 195.194 59.168C194.874 59.4133 194.618 59.8027 194.426 60.336C194.245 60.8693 194.154 61.5573 194.154 62.4C194.154 63.2427 194.245 63.9307 194.426 64.464C194.618 64.9973 194.874 65.3867 195.194 65.632C195.525 65.8773 195.904 66 196.33 66Z" fill="#1D1D1D"/>
<path d="M309.872 46.6617L291.39 48.0207L306.184 58.3928L320.978 48.0207L309.872 46.6617Z" fill="#D88313"/>
<g style="mix-blend-mode:multiply">
<path d="M309.974 47.5257L294.214 48.6845L306.829 57.5287L319.445 48.6845L309.974 47.5257Z" fill="#F7D079"/>
</g>
<path d="M305.57 74.6241L326.141 71.7517V48.6664L305.57 50.7865V74.6241Z" fill="#FCC840"/>
<path d="M291.39 70.6662L305.57 74.6241V50.7149L291.39 48.0207V70.6662Z" fill="#FCC840"/>
<g style="mix-blend-mode:multiply">
<path d="M291.39 70.6662L305.57 74.6241V50.7149L291.39 48.0207V70.6662Z" fill="#F7D079"/>
</g>
<path d="M314.411 73.3897L319.804 72.6366V49.3195L314.411 49.9546V73.3897Z" fill="#EE8037"/>
<path d="M299.532 72.9505L295.615 71.8851L295.722 48.8445L299.532 49.6186V72.9505Z" fill="#EE8037"/>
<g style="mix-blend-mode:multiply">
<path d="M299.532 72.9505L295.615 71.8851L295.722 48.8445L299.532 49.6186V72.9505Z" fill="#F4A97F"/>
</g>
<path d="M307.571 45.8374C307.571 45.8374 307.046 47.3298 307.214 48.6857L306.461 48.8155C305.387 47.534 306.251 45.9458 306.251 45.9458C306.53 46.4795 307.571 45.8374 307.571 45.8374V45.8374Z" fill="#FFCBA2"/>
<path d="M305.837 36.4195C305.837 36.4195 305.26 40.0681 305.606 43.2178L304.599 43.7122C303.037 40.959 304.064 37.0041 304.064 37.0041C304.487 38.1928 305.837 36.4195 305.837 36.4195Z" fill="#FFCBA2"/>
<path d="M302.25 46.1873C302.25 46.1873 301.618 46.2045 301.136 46.461L300.98 46.1983C301.305 45.614 302.021 45.7098 302.021 45.7098C301.862 45.8901 302.25 46.1873 302.25 46.1873Z" fill="#FFCBA2"/>
<path d="M302.352 34.6683C302.352 34.6683 301.628 35.1346 301.247 35.7725L300.88 35.5767C300.847 34.6676 301.749 34.2742 301.749 34.2742C301.69 34.5966 302.352 34.6683 302.352 34.6683V34.6683Z" fill="#FFCBA2"/>
<path d="M308.468 45.1532C308.468 45.1532 307.639 43.7524 308.859 42.175L309.903 42.5741C308.953 43.898 309.849 45.0479 309.849 45.0479C309.388 44.6206 308.468 45.1532 308.468 45.1532V45.1532Z" fill="#FF9450"/>
<path d="M333.351 31.7581C333.351 31.7581 332.109 32.5575 331.457 33.6511L330.828 33.3154C330.772 31.7568 332.317 31.0823 332.317 31.0823C332.216 31.635 333.351 31.7581 333.351 31.7581Z" fill="#9EDEFF"/>
<path d="M288.798 39.0291C288.798 39.0291 293.308 40.8056 297.956 45.2809L296.511 45.7023C292.594 42.032 288.845 40.8196 288.845 40.8196C290.266 41.1238 288.798 39.0291 288.798 39.0291Z" fill="#FF9450"/>
<path d="M326.723 45.5233C326.642 49.3492 325.464 51.6801 325.464 51.6801C325.464 51.6801 323.165 48.5554 323.223 46.463C323.281 44.3702 325.078 42.2041 325.078 42.2041C325.078 42.2041 326.766 43.4346 326.723 45.5233V45.5233Z" fill="#EE8037"/>
<path d="M325.408 50.4954C325.431 49.2064 323.899 45.9918 324.24 44.4717C324.58 42.9516 325.101 42.211 325.101 42.211C325.101 42.211 323.353 42.888 322.104 42.926C320.854 42.9641 319.449 43.9326 320.105 46.1472C320.761 48.3619 322.177 49.1643 322.275 50.3087C322.374 51.4531 325.408 50.4954 325.408 50.4954V50.4954Z" fill="#EE8037"/>
<g style="mix-blend-mode:multiply">
<path d="M325.408 50.4954C325.431 49.2064 323.899 45.9918 324.24 44.4717C324.58 42.9516 325.101 42.211 325.101 42.211C325.101 42.211 323.353 42.888 322.104 42.926C320.854 42.9641 319.449 43.9326 320.105 46.1472C320.761 48.3619 322.177 49.1643 322.275 50.3087C322.374 51.4531 325.408 50.4954 325.408 50.4954V50.4954Z" fill="#EE8037"/>
</g>
<path d="M335.435 57.4755C332.114 57.0814 329.919 57.7461 329.919 57.7461C329.919 57.7461 332.316 60.5553 334.135 60.7561C335.953 60.9568 338.064 59.312 338.064 59.312C338.064 59.312 337.248 57.6907 335.435 57.4755V57.4755Z" fill="#EE8037"/>
<g style="mix-blend-mode:multiply">
<path d="M335.435 57.4755C332.114 57.0814 329.919 57.7461 329.919 57.7461C329.919 57.7461 332.316 60.5553 334.135 60.7561C335.953 60.9568 338.064 59.312 338.064 59.312C338.064 59.312 337.248 57.6907 335.435 57.4755V57.4755Z" fill="#EE8037"/>
</g>
<path d="M330.273 57.7935C332.672 57.3848 334.661 59.1761 336.064 59.4705C337.299 59.7297 338.064 59.312 338.064 59.312C338.064 59.312 337.284 60.4582 337.181 61.4926C337.064 62.6675 335.362 63.0922 334.16 62.9771C331.97 62.7671 331.755 60.883 330.768 60.6965C329.782 60.5099 330.273 57.7935 330.273 57.7935Z" fill="#EE8037"/>
<path d="M333.072 47.4965C329.67 52.4251 326.621 54.7591 326.621 54.7591C326.621 54.7591 326.892 48.6833 328.768 45.9998C330.644 43.3163 334.446 42.0744 334.446 42.0744C334.446 42.0744 334.929 44.8057 333.072 47.4965Z" fill="#EE8037"/>
<path d="M332.991 49.9692C327.41 52.6527 324.937 55.4968 324.937 55.4968C324.937 55.4968 331.435 55.8362 334.476 54.3535C337.518 52.8707 339.24 49.4766 339.24 49.4766C339.24 49.4766 336.038 48.5041 332.991 49.9692H332.991Z" fill="#EE8037"/>
<g style="mix-blend-mode:multiply">
<path d="M332.991 49.9692C327.41 52.6527 324.937 55.4968 324.937 55.4968C324.937 55.4968 331.435 55.8362 334.476 54.3535C337.518 52.8707 339.24 49.4766 339.24 49.4766C339.24 49.4766 336.038 48.5041 332.991 49.9692H332.991Z" fill="#EE8037"/>
</g>
<path d="M326.731 54.7526C328.615 53.8529 334.617 53.31 336.581 51.9132C338.545 50.5163 339.211 49.4562 339.211 49.4562C339.211 49.4562 339.646 51.7869 340.616 53.1506C341.586 54.5144 341.31 56.6763 337.502 57.4773C333.695 58.2783 331.348 57.3072 329.578 57.9791C327.808 58.6511 326.731 54.7526 326.731 54.7526V54.7526Z" fill="#EE8037"/>
<path d="M326.979 54.228C330.036 51.3599 330.728 46.8575 332.054 44.6477C333.222 42.7033 334.446 42.0744 334.446 42.0744C334.446 42.0744 332.574 41.9968 331.563 41.1061C330.415 40.094 328.13 41.9932 326.875 43.7503C324.588 46.9499 325.976 49.1233 325.026 50.6563C324.075 52.1891 326.979 54.228 326.979 54.228Z" fill="#EE8037"/>
<g style="mix-blend-mode:multiply">
<path d="M326.979 54.228C330.036 51.3599 330.728 46.8575 332.054 44.6477C333.222 42.7033 334.446 42.0744 334.446 42.0744C334.446 42.0744 332.574 41.9968 331.563 41.1061C330.415 40.094 328.13 41.9932 326.875 43.7503C324.588 46.9499 325.976 49.1233 325.026 50.6563C324.075 52.1891 326.979 54.228 326.979 54.228Z" fill="#EE8037"/>
</g>
<g style="mix-blend-mode:multiply">
<path d="M325.325 51.3673L336.266 68.8298L331.935 71.9098L318.947 55.9032L311.391 43.8761L316.124 40.5097L325.325 51.3673Z" fill="#E3A20A"/>
</g>
<path d="M319.855 55.1633L332.228 72.2111L337.173 68.6945L325.947 50.8306L319.855 55.1633Z" fill="#FCC840"/>
<path d="M311.626 43.1981L319.855 55.1632L325.947 50.8306L316.55 39.6963L311.626 43.1981Z" fill="#FCC840"/>
<g style="mix-blend-mode:multiply">
<path d="M311.626 43.1981L319.855 55.1632L325.947 50.8306L316.55 39.6963L311.626 43.1981Z" fill="#F7D079"/>
</g>
<path d="M325.149 62.3405L328.32 66.703L333.767 62.8289L330.699 58.3928L325.149 62.3405Z" fill="#EE8037"/>
<g style="mix-blend-mode:multiply">
<path d="M316.534 50.2097L314.318 46.9787L319.81 43.2041L322.076 46.2681L316.534 50.2097Z" fill="#F4A97F"/>
</g>
<path d="M329.142 51.6909C329.142 51.6909 328.887 49.9367 328.165 48.5947L328.68 48.1681C330.057 49.0834 330.097 51.066 330.097 51.066C329.652 50.6195 329.142 51.6909 329.142 51.6909Z" fill="#FBC900"/>
<path d="M323.718 29.5008C323.726 29.4716 323.726 29.4395 323.714 29.409C323.685 29.3365 323.603 29.3009 323.531 29.3295L320.826 30.3944C320.753 30.423 320.718 30.5048 320.746 30.5773C320.775 30.6497 320.857 30.6854 320.929 30.6568L323.634 29.5918C323.676 29.5753 323.706 29.5409 323.718 29.5008Z" fill="#9FB1CE"/>
<path d="M324.074 24.9191C324.089 24.87 324.076 24.8147 324.037 24.7769C323.98 24.7231 323.891 24.725 323.837 24.7813L319.501 29.3142C319.447 29.3702 319.449 29.4596 319.505 29.5135C319.561 29.5674 319.651 29.5654 319.704 29.5091L324.041 24.9763C324.057 24.9596 324.068 24.9399 324.074 24.9191V24.9191Z" fill="#9FB1CE"/>
<path d="M314.352 28.8655C314.36 28.8375 314.36 28.8067 314.349 28.7771L313.354 26.046C313.328 25.9728 313.247 25.9351 313.173 25.9618C313.1 25.9886 313.062 26.0693 313.089 26.1425L314.084 28.8736C314.111 28.9468 314.192 28.9845 314.265 28.9578C314.309 28.9419 314.34 28.9068 314.352 28.8655V28.8655Z" fill="#9FB1CE"/>
<path d="M316.354 28.3088C316.36 28.2881 316.362 28.2656 316.358 28.2428L315.206 22.0762C315.192 21.9997 315.118 21.9493 315.041 21.9635C314.965 21.9778 314.914 22.0513 314.929 22.1281L316.08 28.2947C316.095 28.3712 316.168 28.4216 316.245 28.4073C316.299 28.3973 316.34 28.3579 316.354 28.3088V28.3088Z" fill="#9FB1CE"/>
<path d="M318.108 28.3756L319.502 23.6919C319.525 23.6173 319.482 23.5388 319.407 23.5165C319.333 23.4943 319.254 23.5368 319.232 23.6115L317.838 28.2951C317.816 28.3697 317.858 28.4483 317.933 28.4705C318.007 28.4927 318.086 28.4502 318.108 28.3756Z" fill="#9FB1CE"/>
<path d="M310.703 39.0385L310.965 39.8083L310.478 40.4599L311.291 40.4493L311.761 41.1131L312.002 40.3372L312.778 40.0955L312.115 39.6259L312.125 38.8134L311.473 39.2997L310.703 39.0385Z" fill="#FFC55E"/>
<path d="M314.731 33.0918L315.291 33.1651L315.548 33.6679L315.79 33.1579L316.348 33.0686L315.938 32.6802L316.026 32.1224L315.529 32.3923L315.026 32.1367L315.129 32.692L314.731 33.0918Z" fill="#FFC55E"/>
<path d="M297.126 30.1903L297.508 31.3173L296.796 32.2712L297.986 32.2559L298.674 33.2277L299.027 32.0912L300.163 31.7379L299.192 31.0508L299.207 29.8605L298.253 30.5725L297.126 30.1903Z" fill="#FFC55E"/>
<path d="M303.764 24.8132L305.739 26.32L305.617 28.8021L307.661 27.3892L309.984 28.2711L309.271 25.8918L310.828 23.9557L308.345 23.8976L306.985 21.8182L306.162 24.1628L303.764 24.8132Z" fill="#FFC55E"/>
<path d="M282.985 31.2754L283.527 32.3969L282.909 33.4787L284.143 33.3105L284.982 34.2316L285.203 33.0061L286.338 32.4939L285.241 31.9046L285.105 30.6667L284.205 31.5281L282.985 31.2754Z" fill="#FFC55E"/>
<path d="M319.286 34.1538L320.396 35.9367L319.556 37.862L321.595 37.3571L323.167 38.7509L323.317 36.6559L325.127 35.592L323.182 34.8023L322.73 32.7507L321.377 34.3577L319.286 34.1538Z" fill="#FFC55E"/>
<path d="M286.916 44.4914L287.708 44.8107L287.893 45.6447L288.442 44.9899L289.293 45.0703L288.84 44.3464L289.18 43.5624L288.351 43.77L287.71 43.2041L287.651 44.0572L286.916 44.4914Z" fill="#FFC55E"/>
<path d="M294.906 35.7906L295.378 35.9809L295.489 36.4783L295.817 36.0877L296.323 36.1357L296.053 35.7041L296.256 35.2369L295.762 35.3603L295.38 35.0233L295.345 35.5315L294.906 35.7906Z" fill="#FFC55E"/>
<path d="M326.936 29.6807L327.432 29.8804L327.548 30.402L327.891 29.9923L328.423 30.0429L328.14 29.59L328.352 29.0999L327.834 29.2293L327.433 28.8758L327.396 29.4091L326.936 29.6807Z" fill="#FFC55E"/>
<path d="M294.933 29.8605C295.475 29.8605 295.917 29.4187 295.917 28.8757C295.917 28.3327 295.475 27.8908 294.933 27.8908C294.389 27.8908 293.948 28.3327 293.948 28.8757C293.948 29.4187 294.389 29.8605 294.933 29.8605ZM294.933 28.3231C295.237 28.3231 295.485 28.571 295.485 28.8757C295.485 29.1804 295.237 29.4283 294.933 29.4283C294.628 29.4283 294.38 29.1804 294.38 28.8757C294.38 28.571 294.628 28.3231 294.933 28.3231Z" fill="#9FB1CE"/>
<path d="M328.461 37.5293C329.011 37.5293 329.459 37.082 329.459 36.532C329.459 35.9821 329.011 35.5348 328.461 35.5348C327.912 35.5348 327.464 35.9821 327.464 36.532C327.464 37.082 327.912 37.5293 328.461 37.5293ZM328.461 35.9669C328.773 35.9669 329.027 36.2204 329.027 36.532C329.027 36.844 328.773 37.0975 328.461 37.0975C328.15 37.0975 327.896 36.844 327.896 36.532C327.896 36.2204 328.15 35.9669 328.461 35.9669Z" fill="#9FB1CE"/>
<path d="M308.836 36.0426C309.685 36.0426 310.375 35.3518 310.375 34.5029C310.375 33.6537 309.685 32.9628 308.836 32.9628C307.987 32.9628 307.296 33.6537 307.296 34.5029C307.296 35.3518 307.987 36.0426 308.836 36.0426ZM308.836 33.3951C309.446 33.3951 309.943 33.892 309.943 34.5029C309.943 35.1135 309.446 35.6104 308.836 35.6104C308.225 35.6104 307.728 35.1135 307.728 34.5029C307.728 33.892 308.225 33.3951 308.836 33.3951V33.3951Z" fill="#9FB1CE"/>
<path d="M316.348 39.029C316.74 39.029 317.058 38.7106 317.058 38.319C317.058 37.9273 316.74 37.6089 316.348 37.6089C315.957 37.6089 315.638 37.9273 315.638 38.319C315.638 38.7106 315.957 39.029 316.348 39.029ZM316.348 38.0407C316.502 38.0407 316.626 38.1654 316.626 38.319C316.626 38.4725 316.502 38.5972 316.348 38.5972C316.195 38.5972 316.07 38.4725 316.07 38.319C316.07 38.1654 316.195 38.0407 316.348 38.0407Z" fill="#9FB1CE"/>
<path d="M284.527 38.6948C285.029 38.6948 285.437 38.2861 285.437 37.784C285.437 37.2823 285.029 36.8736 284.527 36.8736C284.025 36.8736 283.616 37.2823 283.616 37.784C283.616 38.2861 284.025 38.6948 284.527 38.6948ZM284.527 37.3059C284.79 37.3059 285.005 37.5204 285.005 37.784C285.005 38.0481 284.79 38.2626 284.527 38.2626C284.263 38.2626 284.048 38.0481 284.048 37.784C284.048 37.5204 284.263 37.3059 284.527 37.3059Z" fill="#9FB1CE"/>
<path d="M297.956 40.8235C298.306 40.8235 298.591 40.5387 298.591 40.1889C298.591 39.8388 298.306 39.554 297.956 39.554C297.606 39.554 297.321 39.8388 297.321 40.1889C297.321 40.5387 297.606 40.8235 297.956 40.8235ZM297.956 39.9862C298.068 39.9862 298.159 40.0772 298.159 40.1889C298.159 40.3002 298.068 40.3912 297.956 40.3912C297.844 40.3912 297.754 40.3002 297.754 40.1889C297.754 40.0772 297.844 39.9862 297.956 39.9862Z" fill="#9FB1CE"/>
</g>
<defs>
<clipPath id="clip0_18412_13165">
<rect width="360" height="96" fill="white"/>
</clipPath>
</defs>
</svg>
