<svg width="552" height="124" viewBox="0 0 552 124" fill="none" xmlns="http://www.w3.org/2000/svg">
<rect width="552" height="124" rx="8" fill="url(#paint0_linear_1622_121293)"/>
<path d="M44.77 52V49.272L53.834 38.514L54.362 40.054H44.968V36.6H58.234V39.328L49.17 50.086L48.642 48.546H58.564V52H44.77ZM64.4756 42.562H71.6256V45.818H64.4756V42.562ZM64.7836 48.634H72.8356V52H60.4716V36.6H72.5496V39.966H64.7836V48.634ZM75.2529 52V36.6H82.2929C83.7009 36.6 84.9109 36.8273 85.9229 37.282C86.9496 37.7367 87.7416 38.3967 88.2989 39.262C88.8562 40.1127 89.1349 41.1247 89.1349 42.298C89.1349 43.4567 88.8562 44.4613 88.2989 45.312C87.7416 46.148 86.9496 46.7933 85.9229 47.248C84.9109 47.688 83.7009 47.908 82.2929 47.908H77.6729L79.6089 46.082V52H75.2529ZM84.7789 52L80.9509 46.39H85.5929L89.4429 52H84.7789ZM79.6089 46.544L77.6729 44.542H82.0289C82.9382 44.542 83.6129 44.344 84.0529 43.948C84.5076 43.552 84.7349 43.002 84.7349 42.298C84.7349 41.5793 84.5076 41.022 84.0529 40.626C83.6129 40.23 82.9382 40.032 82.0289 40.032H77.6729L79.6089 38.03V46.544ZM99.304 52.308C98.072 52.308 96.9354 52.11 95.894 51.714C94.8527 51.318 93.9434 50.7607 93.166 50.042C92.4034 49.3087 91.8094 48.458 91.384 47.49C90.9587 46.522 90.746 45.4587 90.746 44.3C90.746 43.1413 90.9587 42.078 91.384 41.11C91.8094 40.142 92.4034 39.2987 93.166 38.58C93.9434 37.8467 94.8527 37.282 95.894 36.886C96.9354 36.49 98.072 36.292 99.304 36.292C100.551 36.292 101.687 36.49 102.714 36.886C103.755 37.282 104.657 37.8467 105.42 38.58C106.183 39.2987 106.777 40.142 107.202 41.11C107.642 42.078 107.862 43.1413 107.862 44.3C107.862 45.4587 107.642 46.5293 107.202 47.512C106.777 48.48 106.183 49.3233 105.42 50.042C104.657 50.7607 103.755 51.318 102.714 51.714C101.687 52.11 100.551 52.308 99.304 52.308ZM99.304 48.7C99.8907 48.7 100.433 48.5973 100.932 48.392C101.445 48.1867 101.885 47.8933 102.252 47.512C102.633 47.116 102.927 46.6467 103.132 46.104C103.352 45.5613 103.462 44.96 103.462 44.3C103.462 43.6253 103.352 43.024 103.132 42.496C102.927 41.9533 102.633 41.4913 102.252 41.11C101.885 40.714 101.445 40.4133 100.932 40.208C100.433 40.0027 99.8907 39.9 99.304 39.9C98.7174 39.9 98.1674 40.0027 97.654 40.208C97.1554 40.4133 96.7154 40.714 96.334 41.11C95.9674 41.4913 95.674 41.9533 95.454 42.496C95.2487 43.024 95.146 43.6253 95.146 44.3C95.146 44.96 95.2487 45.5613 95.454 46.104C95.674 46.6467 95.9674 47.116 96.334 47.512C96.7154 47.8933 97.1554 48.1867 97.654 48.392C98.1674 48.5973 98.7174 48.7 99.304 48.7ZM124.224 52.308C123.007 52.308 121.877 52.1173 120.836 51.736C119.809 51.34 118.915 50.7827 118.152 50.064C117.404 49.3453 116.817 48.502 116.392 47.534C115.967 46.5513 115.754 45.4733 115.754 44.3C115.754 43.1267 115.967 42.056 116.392 41.088C116.817 40.1053 117.404 39.2547 118.152 38.536C118.915 37.8173 119.809 37.2673 120.836 36.886C121.877 36.49 123.007 36.292 124.224 36.292C125.647 36.292 126.915 36.5413 128.03 37.04C129.159 37.5387 130.098 38.2573 130.846 39.196L128.074 41.704C127.575 41.1173 127.025 40.67 126.424 40.362C125.837 40.054 125.177 39.9 124.444 39.9C123.813 39.9 123.234 40.0027 122.706 40.208C122.178 40.4133 121.723 40.714 121.342 41.11C120.975 41.4913 120.682 41.9533 120.462 42.496C120.257 43.0387 120.154 43.64 120.154 44.3C120.154 44.96 120.257 45.5613 120.462 46.104C120.682 46.6467 120.975 47.116 121.342 47.512C121.723 47.8933 122.178 48.1867 122.706 48.392C123.234 48.5973 123.813 48.7 124.444 48.7C125.177 48.7 125.837 48.546 126.424 48.238C127.025 47.93 127.575 47.4827 128.074 46.896L130.846 49.404C130.098 50.328 129.159 51.0467 128.03 51.56C126.915 52.0587 125.647 52.308 124.224 52.308ZM140.232 52.308C139 52.308 137.863 52.11 136.822 51.714C135.78 51.318 134.871 50.7607 134.094 50.042C133.331 49.3087 132.737 48.458 132.312 47.49C131.886 46.522 131.674 45.4587 131.674 44.3C131.674 43.1413 131.886 42.078 132.312 41.11C132.737 40.142 133.331 39.2987 134.094 38.58C134.871 37.8467 135.78 37.282 136.822 36.886C137.863 36.49 139 36.292 140.232 36.292C141.478 36.292 142.615 36.49 143.642 36.886C144.683 37.282 145.585 37.8467 146.348 38.58C147.11 39.2987 147.704 40.142 148.13 41.11C148.57 42.078 148.79 43.1413 148.79 44.3C148.79 45.4587 148.57 46.5293 148.13 47.512C147.704 48.48 147.11 49.3233 146.348 50.042C145.585 50.7607 144.683 51.318 143.642 51.714C142.615 52.11 141.478 52.308 140.232 52.308ZM140.232 48.7C140.818 48.7 141.361 48.5973 141.86 48.392C142.373 48.1867 142.813 47.8933 143.18 47.512C143.561 47.116 143.854 46.6467 144.06 46.104C144.28 45.5613 144.39 44.96 144.39 44.3C144.39 43.6253 144.28 43.024 144.06 42.496C143.854 41.9533 143.561 41.4913 143.18 41.11C142.813 40.714 142.373 40.4133 141.86 40.208C141.361 40.0027 140.818 39.9 140.232 39.9C139.645 39.9 139.095 40.0027 138.582 40.208C138.083 40.4133 137.643 40.714 137.262 41.11C136.895 41.4913 136.602 41.9533 136.382 42.496C136.176 43.024 136.074 43.6253 136.074 44.3C136.074 44.96 136.176 45.5613 136.382 46.104C136.602 46.6467 136.895 47.116 137.262 47.512C137.643 47.8933 138.083 48.1867 138.582 48.392C139.095 48.5973 139.645 48.7 140.232 48.7ZM151.071 52V36.6H154.657L163.149 46.852H161.455V36.6H165.723V52H162.137L153.645 41.748H155.339V52H151.071ZM173.483 52L166.905 36.6H171.613L177.157 49.932H174.385L180.061 36.6H184.373L177.773 52H173.483ZM189.278 42.562H196.428V45.818H189.278V42.562ZM189.586 48.634H197.638V52H185.274V36.6H197.352V39.966H189.586V48.634ZM200.056 52V36.6H203.642L212.134 46.852H210.44V36.6H214.708V52H211.122L202.63 41.748H204.324V52H200.056ZM217.78 52V36.6H222.136V52H217.78ZM229.239 42.562H236.389V45.818H229.239V42.562ZM229.547 48.634H237.599V52H225.235V36.6H237.313V39.966H229.547V48.634ZM240.017 52V36.6H243.603L252.095 46.852H250.401V36.6H254.669V52H251.083L242.591 41.748H244.285V52H240.017ZM265.419 52.308C264.202 52.308 263.073 52.1173 262.031 51.736C261.005 51.34 260.11 50.7827 259.347 50.064C258.599 49.3453 258.013 48.502 257.587 47.534C257.162 46.5513 256.949 45.4733 256.949 44.3C256.949 43.1267 257.162 42.056 257.587 41.088C258.013 40.1053 258.599 39.2547 259.347 38.536C260.11 37.8173 261.005 37.2673 262.031 36.886C263.073 36.49 264.202 36.292 265.419 36.292C266.842 36.292 268.111 36.5413 269.225 37.04C270.355 37.5387 271.293 38.2573 272.041 39.196L269.269 41.704C268.771 41.1173 268.221 40.67 267.619 40.362C267.033 40.054 266.373 39.9 265.639 39.9C265.009 39.9 264.429 40.0027 263.901 40.208C263.373 40.4133 262.919 40.714 262.537 41.11C262.171 41.4913 261.877 41.9533 261.657 42.496C261.452 43.0387 261.349 43.64 261.349 44.3C261.349 44.96 261.452 45.5613 261.657 46.104C261.877 46.6467 262.171 47.116 262.537 47.512C262.919 47.8933 263.373 48.1867 263.901 48.392C264.429 48.5973 265.009 48.7 265.639 48.7C266.373 48.7 267.033 48.546 267.619 48.238C268.221 47.93 268.771 47.4827 269.269 46.896L272.041 49.404C271.293 50.328 270.355 51.0467 269.225 51.56C268.111 52.0587 266.842 52.308 265.419 52.308ZM277.987 42.562H285.137V45.818H277.987V42.562ZM278.295 48.634H286.347V52H273.983V36.6H286.061V39.966H278.295V48.634ZM299.215 43.354H306.321V46.72H299.215V43.354ZM299.523 52H295.167V36.6H307.245V39.966H299.523V52ZM313.286 42.562H320.436V45.818H313.286V42.562ZM313.594 48.634H321.646V52H309.282V36.6H321.36V39.966H313.594V48.634ZM328.067 42.562H335.217V45.818H328.067V42.562ZM328.375 48.634H336.427V52H324.063V36.6H336.141V39.966H328.375V48.634Z" fill="#FCFCFC"/>
<path d="M45.328 90V78.8H50.8C52.208 78.8 53.264 79.0667 53.968 79.6C54.6827 80.1333 55.04 80.8373 55.04 81.712C55.04 82.2987 54.896 82.8107 54.608 83.248C54.32 83.6747 53.9253 84.0053 53.424 84.24C52.9227 84.4747 52.3467 84.592 51.696 84.592L52 83.936C52.704 83.936 53.328 84.0533 53.872 84.288C54.416 84.512 54.8373 84.848 55.136 85.296C55.4453 85.744 55.6 86.2933 55.6 86.944C55.6 87.904 55.2213 88.656 54.464 89.2C53.7067 89.7333 52.592 90 51.12 90H45.328ZM47.904 88.048H50.928C51.6 88.048 52.1067 87.9413 52.448 87.728C52.8 87.504 52.976 87.152 52.976 86.672C52.976 86.2027 52.8 85.856 52.448 85.632C52.1067 85.3973 51.6 85.28 50.928 85.28H47.712V83.392H50.48C51.1093 83.392 51.5893 83.2853 51.92 83.072C52.2613 82.848 52.432 82.512 52.432 82.064C52.432 81.6267 52.2613 81.3013 51.92 81.088C51.5893 80.864 51.1093 80.752 50.48 80.752H47.904V88.048ZM61.4824 90.128C60.565 90.128 59.749 89.936 59.0344 89.552C58.3304 89.168 57.7704 88.6453 57.3544 87.984C56.949 87.312 56.7464 86.5493 56.7464 85.696C56.7464 84.832 56.949 84.0693 57.3544 83.408C57.7704 82.736 58.3304 82.2133 59.0344 81.84C59.749 81.456 60.565 81.264 61.4824 81.264C62.389 81.264 63.1997 81.456 63.9144 81.84C64.629 82.2133 65.189 82.7307 65.5944 83.392C65.9997 84.0533 66.2024 84.8213 66.2024 85.696C66.2024 86.5493 65.9997 87.312 65.5944 87.984C65.189 88.6453 64.629 89.168 63.9144 89.552C63.1997 89.936 62.389 90.128 61.4824 90.128ZM61.4824 88.08C61.8984 88.08 62.2717 87.984 62.6024 87.792C62.933 87.6 63.1944 87.328 63.3864 86.976C63.5784 86.6133 63.6744 86.1867 63.6744 85.696C63.6744 85.1947 63.5784 84.768 63.3864 84.416C63.1944 84.064 62.933 83.792 62.6024 83.6C62.2717 83.408 61.8984 83.312 61.4824 83.312C61.0664 83.312 60.693 83.408 60.3624 83.6C60.0317 83.792 59.765 84.064 59.5624 84.416C59.3704 84.768 59.2744 85.1947 59.2744 85.696C59.2744 86.1867 59.3704 86.6133 59.5624 86.976C59.765 87.328 60.0317 87.6 60.3624 87.792C60.693 87.984 61.0664 88.08 61.4824 88.08ZM71.9668 90.128C71.0494 90.128 70.2334 89.936 69.5188 89.552C68.8148 89.168 68.2548 88.6453 67.8388 87.984C67.4334 87.312 67.2308 86.5493 67.2308 85.696C67.2308 84.832 67.4334 84.0693 67.8388 83.408C68.2548 82.736 68.8148 82.2133 69.5188 81.84C70.2334 81.456 71.0494 81.264 71.9668 81.264C72.8734 81.264 73.6841 81.456 74.3988 81.84C75.1134 82.2133 75.6734 82.7307 76.0788 83.392C76.4841 84.0533 76.6868 84.8213 76.6868 85.696C76.6868 86.5493 76.4841 87.312 76.0788 87.984C75.6734 88.6453 75.1134 89.168 74.3988 89.552C73.6841 89.936 72.8734 90.128 71.9668 90.128ZM71.9668 88.08C72.3828 88.08 72.7561 87.984 73.0868 87.792C73.4174 87.6 73.6788 87.328 73.8708 86.976C74.0628 86.6133 74.1588 86.1867 74.1588 85.696C74.1588 85.1947 74.0628 84.768 73.8708 84.416C73.6788 84.064 73.4174 83.792 73.0868 83.6C72.7561 83.408 72.3828 83.312 71.9668 83.312C71.5508 83.312 71.1774 83.408 70.8468 83.6C70.5161 83.792 70.2494 84.064 70.0468 84.416C69.8548 84.768 69.7588 85.1947 69.7588 85.696C69.7588 86.1867 69.8548 86.6133 70.0468 86.976C70.2494 87.328 70.5161 87.6 70.8468 87.792C71.1774 87.984 71.5508 88.08 71.9668 88.08ZM80.4191 88.24L80.4831 85.2L84.4991 81.392H87.4751L83.6191 85.312L82.3231 86.368L80.4191 88.24ZM78.3551 90V78.128H80.8511V90H78.3551ZM84.7711 90L81.8591 86.384L83.4271 84.448L87.7951 90H84.7711ZM96.9689 90.128C95.9555 90.128 95.1662 89.872 94.6009 89.36C94.0355 88.8373 93.7529 88.064 93.7529 87.04V79.488H96.2489V87.008C96.2489 87.3707 96.3449 87.6533 96.5369 87.856C96.7289 88.048 96.9902 88.144 97.3209 88.144C97.7155 88.144 98.0515 88.0373 98.3289 87.824L99.0009 89.584C98.7449 89.7653 98.4355 89.904 98.0729 90C97.7209 90.0853 97.3529 90.128 96.9689 90.128ZM92.4249 83.504V81.584H98.3929V83.504H92.4249ZM105.634 81.264C106.317 81.264 106.925 81.4027 107.458 81.68C108.002 81.9467 108.429 82.3627 108.738 82.928C109.047 83.4827 109.202 84.1973 109.202 85.072V90H106.706V85.456C106.706 84.7627 106.551 84.2507 106.242 83.92C105.943 83.5893 105.517 83.424 104.962 83.424C104.567 83.424 104.21 83.5093 103.89 83.68C103.581 83.84 103.335 84.0907 103.154 84.432C102.983 84.7733 102.898 85.2107 102.898 85.744V90H100.402V78.128H102.898V83.776L102.338 83.056C102.647 82.48 103.09 82.0373 103.666 81.728C104.242 81.4187 104.898 81.264 105.634 81.264ZM115.799 90.128C114.818 90.128 113.954 89.936 113.207 89.552C112.471 89.168 111.9 88.6453 111.495 87.984C111.09 87.312 110.887 86.5493 110.887 85.696C110.887 84.832 111.084 84.0693 111.479 83.408C111.884 82.736 112.434 82.2133 113.127 81.84C113.82 81.456 114.604 81.264 115.479 81.264C116.322 81.264 117.079 81.4453 117.751 81.808C118.434 82.16 118.972 82.672 119.367 83.344C119.762 84.0053 119.959 84.8 119.959 85.728C119.959 85.824 119.954 85.936 119.943 86.064C119.932 86.1813 119.922 86.2933 119.911 86.4H112.919V84.944H118.599L117.639 85.376C117.639 84.928 117.548 84.5387 117.367 84.208C117.186 83.8773 116.935 83.6213 116.615 83.44C116.295 83.248 115.922 83.152 115.495 83.152C115.068 83.152 114.69 83.248 114.359 83.44C114.039 83.6213 113.788 83.8827 113.607 84.224C113.426 84.5547 113.335 84.9493 113.335 85.408V85.792C113.335 86.2613 113.436 86.6773 113.639 87.04C113.852 87.392 114.146 87.664 114.519 87.856C114.903 88.0373 115.351 88.128 115.863 88.128C116.322 88.128 116.722 88.0587 117.063 87.92C117.415 87.7813 117.735 87.5733 118.023 87.296L119.351 88.736C118.956 89.184 118.46 89.5307 117.863 89.776C117.266 90.0107 116.578 90.128 115.799 90.128ZM130.312 90.128C129.384 90.128 128.557 89.9413 127.832 89.568C127.107 89.184 126.536 88.656 126.12 87.984C125.715 87.312 125.512 86.5493 125.512 85.696C125.512 84.832 125.715 84.0693 126.12 83.408C126.536 82.736 127.107 82.2133 127.832 81.84C128.557 81.456 129.384 81.264 130.312 81.264C131.219 81.264 132.008 81.456 132.68 81.84C133.352 82.2133 133.848 82.752 134.168 83.456L132.232 84.496C132.008 84.0907 131.725 83.792 131.384 83.6C131.053 83.408 130.691 83.312 130.296 83.312C129.869 83.312 129.485 83.408 129.144 83.6C128.803 83.792 128.531 84.064 128.328 84.416C128.136 84.768 128.04 85.1947 128.04 85.696C128.04 86.1973 128.136 86.624 128.328 86.976C128.531 87.328 128.803 87.6 129.144 87.792C129.485 87.984 129.869 88.08 130.296 88.08C130.691 88.08 131.053 87.9893 131.384 87.808C131.725 87.616 132.008 87.312 132.232 86.896L134.168 87.952C133.848 88.6453 133.352 89.184 132.68 89.568C132.008 89.9413 131.219 90.128 130.312 90.128ZM140.79 81.264C141.473 81.264 142.081 81.4027 142.614 81.68C143.158 81.9467 143.585 82.3627 143.894 82.928C144.204 83.4827 144.358 84.1973 144.358 85.072V90H141.862V85.456C141.862 84.7627 141.708 84.2507 141.398 83.92C141.1 83.5893 140.673 83.424 140.118 83.424C139.724 83.424 139.366 83.5093 139.046 83.68C138.737 83.84 138.492 84.0907 138.31 84.432C138.14 84.7733 138.054 85.2107 138.054 85.744V90H135.558V78.128H138.054V83.776L137.494 83.056C137.804 82.48 138.246 82.0373 138.822 81.728C139.398 81.4187 140.054 81.264 140.79 81.264ZM150.955 90.128C149.974 90.128 149.11 89.936 148.363 89.552C147.627 89.168 147.057 88.6453 146.651 87.984C146.246 87.312 146.043 86.5493 146.043 85.696C146.043 84.832 146.241 84.0693 146.635 83.408C147.041 82.736 147.59 82.2133 148.283 81.84C148.977 81.456 149.761 81.264 150.635 81.264C151.478 81.264 152.235 81.4453 152.907 81.808C153.59 82.16 154.129 82.672 154.523 83.344C154.918 84.0053 155.115 84.8 155.115 85.728C155.115 85.824 155.11 85.936 155.099 86.064C155.089 86.1813 155.078 86.2933 155.067 86.4H148.075V84.944H153.755L152.795 85.376C152.795 84.928 152.705 84.5387 152.523 84.208C152.342 83.8773 152.091 83.6213 151.771 83.44C151.451 83.248 151.078 83.152 150.651 83.152C150.225 83.152 149.846 83.248 149.515 83.44C149.195 83.6213 148.945 83.8827 148.763 84.224C148.582 84.5547 148.491 84.9493 148.491 85.408V85.792C148.491 86.2613 148.593 86.6773 148.795 87.04C149.009 87.392 149.302 87.664 149.675 87.856C150.059 88.0373 150.507 88.128 151.019 88.128C151.478 88.128 151.878 88.0587 152.219 87.92C152.571 87.7813 152.891 87.5733 153.179 87.296L154.507 88.736C154.113 89.184 153.617 89.5307 153.019 89.776C152.422 90.0107 151.734 90.128 150.955 90.128ZM161.823 90V88.32L161.663 87.952V84.944C161.663 84.4107 161.497 83.9947 161.167 83.696C160.847 83.3973 160.351 83.248 159.679 83.248C159.22 83.248 158.767 83.3227 158.319 83.472C157.881 83.6107 157.508 83.8027 157.199 84.048L156.303 82.304C156.772 81.9733 157.337 81.7173 157.999 81.536C158.66 81.3547 159.332 81.264 160.015 81.264C161.327 81.264 162.345 81.5733 163.071 82.192C163.796 82.8107 164.159 83.776 164.159 85.088V90H161.823ZM159.199 90.128C158.527 90.128 157.951 90.016 157.471 89.792C156.991 89.5573 156.623 89.2427 156.367 88.848C156.111 88.4533 155.983 88.0107 155.983 87.52C155.983 87.008 156.105 86.56 156.351 86.176C156.607 85.792 157.007 85.4933 157.551 85.28C158.095 85.056 158.804 84.944 159.679 84.944H161.967V86.4H159.951C159.364 86.4 158.959 86.496 158.735 86.688C158.521 86.88 158.415 87.12 158.415 87.408C158.415 87.728 158.537 87.984 158.783 88.176C159.039 88.3573 159.385 88.448 159.823 88.448C160.239 88.448 160.612 88.352 160.943 88.16C161.273 87.9573 161.513 87.664 161.663 87.28L162.047 88.432C161.865 88.9867 161.535 89.408 161.055 89.696C160.575 89.984 159.956 90.128 159.199 90.128ZM171.506 90.128C170.78 90.128 170.146 89.968 169.602 89.648C169.058 89.328 168.631 88.8427 168.322 88.192C168.023 87.5307 167.874 86.6987 167.874 85.696C167.874 84.6827 168.018 83.8507 168.306 83.2C168.594 82.5493 169.01 82.064 169.554 81.744C170.098 81.424 170.748 81.264 171.506 81.264C172.316 81.264 173.042 81.4507 173.682 81.824C174.332 82.1867 174.844 82.6987 175.218 83.36C175.602 84.0213 175.794 84.8 175.794 85.696C175.794 86.6027 175.602 87.3867 175.218 88.048C174.844 88.7093 174.332 89.2213 173.682 89.584C173.042 89.9467 172.316 90.128 171.506 90.128ZM166.418 93.104V81.392H168.802V83.152L168.754 85.712L168.914 88.256V93.104H166.418ZM171.074 88.08C171.49 88.08 171.858 87.984 172.178 87.792C172.508 87.6 172.77 87.328 172.962 86.976C173.164 86.6133 173.266 86.1867 173.266 85.696C173.266 85.1947 173.164 84.768 172.962 84.416C172.77 84.064 172.508 83.792 172.178 83.6C171.858 83.408 171.49 83.312 171.074 83.312C170.658 83.312 170.284 83.408 169.954 83.6C169.623 83.792 169.362 84.064 169.17 84.416C168.978 84.768 168.882 85.1947 168.882 85.696C168.882 86.1867 168.978 86.6133 169.17 86.976C169.362 87.328 169.623 87.6 169.954 87.792C170.284 87.984 170.658 88.08 171.074 88.08ZM181.737 90.128C180.755 90.128 179.891 89.936 179.145 89.552C178.409 89.168 177.838 88.6453 177.433 87.984C177.027 87.312 176.825 86.5493 176.825 85.696C176.825 84.832 177.022 84.0693 177.417 83.408C177.822 82.736 178.371 82.2133 179.065 81.84C179.758 81.456 180.542 81.264 181.417 81.264C182.259 81.264 183.017 81.4453 183.689 81.808C184.371 82.16 184.91 82.672 185.305 83.344C185.699 84.0053 185.897 84.8 185.897 85.728C185.897 85.824 185.891 85.936 185.881 86.064C185.87 86.1813 185.859 86.2933 185.849 86.4H178.857V84.944H184.536L183.577 85.376C183.577 84.928 183.486 84.5387 183.305 84.208C183.123 83.8773 182.873 83.6213 182.553 83.44C182.233 83.248 181.859 83.152 181.433 83.152C181.006 83.152 180.627 83.248 180.297 83.44C179.977 83.6213 179.726 83.8827 179.545 84.224C179.363 84.5547 179.273 84.9493 179.273 85.408V85.792C179.273 86.2613 179.374 86.6773 179.577 87.04C179.79 87.392 180.083 87.664 180.457 87.856C180.841 88.0373 181.289 88.128 181.801 88.128C182.259 88.128 182.659 88.0587 183.001 87.92C183.353 87.7813 183.673 87.5733 183.961 87.296L185.289 88.736C184.894 89.184 184.398 89.5307 183.801 89.776C183.203 90.0107 182.515 90.128 181.737 90.128ZM190.454 90.128C189.718 90.128 189.009 90.0427 188.326 89.872C187.654 89.6907 187.121 89.4667 186.726 89.2L187.558 87.408C187.953 87.6533 188.417 87.856 188.95 88.016C189.494 88.1653 190.028 88.24 190.55 88.24C191.126 88.24 191.532 88.1707 191.766 88.032C192.012 87.8933 192.134 87.7013 192.134 87.456C192.134 87.2533 192.038 87.104 191.846 87.008C191.665 86.9013 191.42 86.8213 191.11 86.768C190.801 86.7147 190.46 86.6613 190.086 86.608C189.724 86.5547 189.356 86.4853 188.982 86.4C188.609 86.304 188.268 86.1653 187.958 85.984C187.649 85.8027 187.398 85.5573 187.206 85.248C187.025 84.9387 186.934 84.5387 186.934 84.048C186.934 83.504 187.089 83.024 187.398 82.608C187.718 82.192 188.177 81.8667 188.774 81.632C189.372 81.3867 190.086 81.264 190.918 81.264C191.505 81.264 192.102 81.328 192.71 81.456C193.318 81.584 193.825 81.7707 194.23 82.016L193.398 83.792C192.982 83.5467 192.561 83.3813 192.134 83.296C191.718 83.2 191.313 83.152 190.918 83.152C190.364 83.152 189.958 83.2267 189.702 83.376C189.446 83.5253 189.318 83.7173 189.318 83.952C189.318 84.1653 189.409 84.3253 189.59 84.432C189.782 84.5387 190.033 84.624 190.342 84.688C190.652 84.752 190.988 84.8107 191.35 84.864C191.724 84.9067 192.097 84.976 192.47 85.072C192.844 85.168 193.18 85.3067 193.478 85.488C193.788 85.6587 194.038 85.8987 194.23 86.208C194.422 86.5067 194.518 86.9013 194.518 87.392C194.518 87.9253 194.358 88.4 194.038 88.816C193.718 89.2213 193.254 89.5413 192.646 89.776C192.049 90.0107 191.318 90.128 190.454 90.128ZM199.578 90.128C198.565 90.128 197.776 89.872 197.21 89.36C196.645 88.8373 196.362 88.064 196.362 87.04V79.488H198.858V87.008C198.858 87.3707 198.954 87.6533 199.146 87.856C199.338 88.048 199.6 88.144 199.93 88.144C200.325 88.144 200.661 88.0373 200.938 87.824L201.61 89.584C201.354 89.7653 201.045 89.904 200.682 90C200.33 90.0853 199.962 90.128 199.578 90.128ZM195.034 83.504V81.584H201.002V83.504H195.034ZM211.063 90.128C210.049 90.128 209.26 89.872 208.695 89.36C208.129 88.8373 207.847 88.064 207.847 87.04V79.488H210.343V87.008C210.343 87.3707 210.439 87.6533 210.631 87.856C210.823 88.048 211.084 88.144 211.415 88.144C211.809 88.144 212.145 88.0373 212.423 87.824L213.095 89.584C212.839 89.7653 212.529 89.904 212.167 90C211.815 90.0853 211.447 90.128 211.063 90.128ZM206.519 83.504V81.584H212.487V83.504H206.519ZM214.496 90V81.392H216.88V83.824L216.544 83.12C216.8 82.512 217.21 82.0533 217.776 81.744C218.341 81.424 219.029 81.264 219.84 81.264V83.568C219.733 83.5573 219.637 83.552 219.552 83.552C219.466 83.5413 219.376 83.536 219.28 83.536C218.597 83.536 218.042 83.7333 217.616 84.128C217.2 84.512 216.992 85.1147 216.992 85.936V90H214.496ZM226.041 90V88.32L225.881 87.952V84.944C225.881 84.4107 225.716 83.9947 225.385 83.696C225.065 83.3973 224.569 83.248 223.897 83.248C223.439 83.248 222.985 83.3227 222.537 83.472C222.1 83.6107 221.727 83.8027 221.417 84.048L220.521 82.304C220.991 81.9733 221.556 81.7173 222.217 81.536C222.879 81.3547 223.551 81.264 224.233 81.264C225.545 81.264 226.564 81.5733 227.289 82.192C228.015 82.8107 228.377 83.776 228.377 85.088V90H226.041ZM223.417 90.128C222.745 90.128 222.169 90.016 221.689 89.792C221.209 89.5573 220.841 89.2427 220.585 88.848C220.329 88.4533 220.201 88.0107 220.201 87.52C220.201 87.008 220.324 86.56 220.569 86.176C220.825 85.792 221.225 85.4933 221.769 85.28C222.313 85.056 223.023 84.944 223.897 84.944H226.185V86.4H224.169C223.583 86.4 223.177 86.496 222.953 86.688C222.74 86.88 222.633 87.12 222.633 87.408C222.633 87.728 222.756 87.984 223.001 88.176C223.257 88.3573 223.604 88.448 224.041 88.448C224.457 88.448 224.831 88.352 225.161 88.16C225.492 87.9573 225.732 87.664 225.881 87.28L226.265 88.432C226.084 88.9867 225.753 89.408 225.273 89.696C224.793 89.984 224.175 90.128 223.417 90.128ZM230.636 90V81.392H233.132V90H230.636ZM231.884 80.192C231.426 80.192 231.052 80.0587 230.764 79.792C230.476 79.5253 230.332 79.1947 230.332 78.8C230.332 78.4053 230.476 78.0747 230.764 77.808C231.052 77.5413 231.426 77.408 231.884 77.408C232.343 77.408 232.716 77.536 233.004 77.792C233.292 78.0373 233.436 78.3573 233.436 78.752C233.436 79.168 233.292 79.5147 233.004 79.792C232.727 80.0587 232.354 80.192 231.884 80.192ZM240.681 81.264C241.364 81.264 241.972 81.4027 242.505 81.68C243.049 81.9467 243.476 82.3627 243.785 82.928C244.094 83.4827 244.249 84.1973 244.249 85.072V90H241.753V85.456C241.753 84.7627 241.598 84.2507 241.289 83.92C240.99 83.5893 240.564 83.424 240.009 83.424C239.614 83.424 239.257 83.5093 238.937 83.68C238.628 83.84 238.382 84.0907 238.201 84.432C238.03 84.7733 237.945 85.2107 237.945 85.744V90H235.449V81.392H237.833V83.776L237.385 83.056C237.694 82.48 238.137 82.0373 238.713 81.728C239.289 81.4187 239.945 81.264 240.681 81.264ZM254.563 90.128C253.549 90.128 252.76 89.872 252.195 89.36C251.629 88.8373 251.347 88.064 251.347 87.04V79.488H253.843V87.008C253.843 87.3707 253.939 87.6533 254.131 87.856C254.323 88.048 254.584 88.144 254.915 88.144C255.309 88.144 255.645 88.0373 255.923 87.824L256.595 89.584C256.339 89.7653 256.029 89.904 255.667 90C255.315 90.0853 254.947 90.128 254.563 90.128ZM250.019 83.504V81.584H255.987V83.504H250.019ZM257.996 90V81.392H260.492V90H257.996ZM259.244 80.192C258.785 80.192 258.412 80.0587 258.124 79.792C257.836 79.5253 257.692 79.1947 257.692 78.8C257.692 78.4053 257.836 78.0747 258.124 77.808C258.412 77.5413 258.785 77.408 259.244 77.408C259.702 77.408 260.076 77.536 260.364 77.792C260.652 78.0373 260.796 78.3573 260.796 78.752C260.796 79.168 260.652 79.5147 260.364 79.792C260.086 80.0587 259.713 80.192 259.244 80.192ZM266.968 90.128C266.04 90.128 265.214 89.9413 264.488 89.568C263.763 89.184 263.192 88.656 262.776 87.984C262.371 87.312 262.168 86.5493 262.168 85.696C262.168 84.832 262.371 84.0693 262.776 83.408C263.192 82.736 263.763 82.2133 264.488 81.84C265.214 81.456 266.04 81.264 266.968 81.264C267.875 81.264 268.664 81.456 269.336 81.84C270.008 82.2133 270.504 82.752 270.824 83.456L268.888 84.496C268.664 84.0907 268.382 83.792 268.04 83.6C267.71 83.408 267.347 83.312 266.952 83.312C266.526 83.312 266.142 83.408 265.8 83.6C265.459 83.792 265.187 84.064 264.984 84.416C264.792 84.768 264.696 85.1947 264.696 85.696C264.696 86.1973 264.792 86.624 264.984 86.976C265.187 87.328 265.459 87.6 265.8 87.792C266.142 87.984 266.526 88.08 266.952 88.08C267.347 88.08 267.71 87.9893 268.04 87.808C268.382 87.616 268.664 87.312 268.888 86.896L270.824 87.952C270.504 88.6453 270.008 89.184 269.336 89.568C268.664 89.9413 267.875 90.128 266.968 90.128ZM274.279 88.24L274.343 85.2L278.359 81.392H281.335L277.479 85.312L276.183 86.368L274.279 88.24ZM272.215 90V78.128H274.711V90H272.215ZM278.631 90L275.719 86.384L277.287 84.448L281.655 90H278.631ZM286.69 90.128C285.708 90.128 284.844 89.936 284.098 89.552C283.362 89.168 282.791 88.6453 282.386 87.984C281.98 87.312 281.778 86.5493 281.778 85.696C281.778 84.832 281.975 84.0693 282.37 83.408C282.775 82.736 283.324 82.2133 284.018 81.84C284.711 81.456 285.495 81.264 286.37 81.264C287.212 81.264 287.97 81.4453 288.642 81.808C289.324 82.16 289.863 82.672 290.258 83.344C290.652 84.0053 290.85 84.8 290.85 85.728C290.85 85.824 290.844 85.936 290.834 86.064C290.823 86.1813 290.812 86.2933 290.802 86.4H283.81V84.944H289.49L288.53 85.376C288.53 84.928 288.439 84.5387 288.258 84.208C288.076 83.8773 287.826 83.6213 287.506 83.44C287.186 83.248 286.812 83.152 286.386 83.152C285.959 83.152 285.58 83.248 285.25 83.44C284.93 83.6213 284.679 83.8827 284.498 84.224C284.316 84.5547 284.226 84.9493 284.226 85.408V85.792C284.226 86.2613 284.327 86.6773 284.53 87.04C284.743 87.392 285.036 87.664 285.41 87.856C285.794 88.0373 286.242 88.128 286.754 88.128C287.212 88.128 287.612 88.0587 287.954 87.92C288.306 87.7813 288.626 87.5733 288.914 87.296L290.242 88.736C289.847 89.184 289.351 89.5307 288.754 89.776C288.156 90.0107 287.468 90.128 286.69 90.128ZM296.031 90.128C295.018 90.128 294.229 89.872 293.663 89.36C293.098 88.8373 292.815 88.064 292.815 87.04V79.488H295.311V87.008C295.311 87.3707 295.407 87.6533 295.599 87.856C295.791 88.048 296.053 88.144 296.383 88.144C296.778 88.144 297.114 88.0373 297.391 87.824L298.063 89.584C297.807 89.7653 297.498 89.904 297.135 90C296.783 90.0853 296.415 90.128 296.031 90.128ZM291.487 83.504V81.584H297.455V83.504H291.487ZM302.361 90.128C301.625 90.128 300.915 90.0427 300.233 89.872C299.561 89.6907 299.027 89.4667 298.633 89.2L299.465 87.408C299.859 87.6533 300.323 87.856 300.857 88.016C301.401 88.1653 301.934 88.24 302.457 88.24C303.033 88.24 303.438 88.1707 303.673 88.032C303.918 87.8933 304.041 87.7013 304.041 87.456C304.041 87.2533 303.945 87.104 303.753 87.008C303.571 86.9013 303.326 86.8213 303.016 86.768C302.707 86.7147 302.366 86.6613 301.993 86.608C301.63 86.5547 301.262 86.4853 300.889 86.4C300.515 86.304 300.174 86.1653 299.865 85.984C299.555 85.8027 299.305 85.5573 299.113 85.248C298.931 84.9387 298.84 84.5387 298.84 84.048C298.84 83.504 298.995 83.024 299.305 82.608C299.625 82.192 300.083 81.8667 300.681 81.632C301.278 81.3867 301.993 81.264 302.825 81.264C303.411 81.264 304.009 81.328 304.617 81.456C305.225 81.584 305.731 81.7707 306.137 82.016L305.305 83.792C304.889 83.5467 304.467 83.3813 304.041 83.296C303.625 83.2 303.219 83.152 302.825 83.152C302.27 83.152 301.865 83.2267 301.609 83.376C301.353 83.5253 301.225 83.7173 301.225 83.952C301.225 84.1653 301.315 84.3253 301.497 84.432C301.689 84.5387 301.939 84.624 302.249 84.688C302.558 84.752 302.894 84.8107 303.257 84.864C303.63 84.9067 304.003 84.976 304.377 85.072C304.75 85.168 305.086 85.3067 305.385 85.488C305.694 85.6587 305.945 85.8987 306.137 86.208C306.329 86.5067 306.425 86.9013 306.425 87.392C306.425 87.9253 306.265 88.4 305.945 88.816C305.625 89.2213 305.161 89.5413 304.553 89.776C303.955 90.0107 303.225 90.128 302.361 90.128Z" fill="#FFDCAB"/>
<path d="M384.345 42.088C383.333 42.088 382.537 41.7983 381.958 41.219C381.379 40.6397 381.089 39.7927 381.089 38.678V34.3H382.189V38.634C382.189 39.492 382.376 40.119 382.75 40.515C383.131 40.911 383.667 41.109 384.356 41.109C385.053 41.109 385.588 40.911 385.962 40.515C386.343 40.119 386.534 39.492 386.534 38.634V34.3H387.601V38.678C387.601 39.7927 387.311 40.6397 386.732 41.219C386.16 41.7983 385.364 42.088 384.345 42.088ZM392.1 42.088C391.514 42.088 390.953 42 390.417 41.824C389.882 41.6407 389.46 41.406 389.152 41.12L389.559 40.262C389.853 40.5187 390.227 40.7313 390.681 40.9C391.136 41.0687 391.609 41.153 392.1 41.153C392.548 41.153 392.911 41.1017 393.189 40.999C393.468 40.8963 393.673 40.757 393.805 40.581C393.937 40.3977 394.003 40.1923 394.003 39.965C394.003 39.701 393.915 39.4883 393.739 39.327C393.571 39.1657 393.347 39.0373 393.068 38.942C392.797 38.8393 392.496 38.7513 392.166 38.678C391.836 38.6047 391.503 38.5203 391.165 38.425C390.835 38.3223 390.531 38.194 390.252 38.04C389.981 37.886 389.761 37.6807 389.592 37.424C389.424 37.16 389.339 36.8227 389.339 36.412C389.339 36.016 389.442 35.653 389.647 35.323C389.86 34.9857 390.183 34.718 390.615 34.52C391.055 34.3147 391.613 34.212 392.287 34.212C392.735 34.212 393.178 34.2707 393.618 34.388C394.058 34.5053 394.44 34.674 394.762 34.894L394.399 35.774C394.069 35.554 393.721 35.3963 393.354 35.301C392.988 35.1983 392.632 35.147 392.287 35.147C391.855 35.147 391.499 35.202 391.22 35.312C390.942 35.422 390.736 35.5687 390.604 35.752C390.48 35.9353 390.417 36.1407 390.417 36.368C390.417 36.6393 390.502 36.8557 390.67 37.017C390.846 37.1783 391.07 37.3067 391.341 37.402C391.62 37.4973 391.924 37.5853 392.254 37.666C392.584 37.7393 392.914 37.8237 393.244 37.919C393.582 38.0143 393.886 38.139 394.157 38.293C394.436 38.447 394.66 38.6523 394.828 38.909C394.997 39.1657 395.081 39.4957 395.081 39.899C395.081 40.2877 394.975 40.6507 394.762 40.988C394.55 41.318 394.22 41.5857 393.772 41.791C393.332 41.989 392.775 42.088 392.1 42.088ZM397.689 37.622H401.649V38.557H397.689V37.622ZM397.788 41.043H402.276V42H396.688V34.3H402.122V35.257H397.788V41.043ZM410.454 42.088C409.868 42.088 409.325 41.9927 408.826 41.802C408.335 41.604 407.906 41.329 407.539 40.977C407.18 40.6177 406.898 40.1997 406.692 39.723C406.487 39.2463 406.384 38.722 406.384 38.15C406.384 37.578 406.487 37.0537 406.692 36.577C406.898 36.1003 407.184 35.686 407.55 35.334C407.917 34.9747 408.346 34.6997 408.837 34.509C409.336 34.311 409.879 34.212 410.465 34.212C411.059 34.212 411.606 34.3147 412.104 34.52C412.61 34.718 413.039 35.015 413.391 35.411L412.676 36.104C412.383 35.796 412.053 35.5687 411.686 35.422C411.32 35.268 410.927 35.191 410.509 35.191C410.077 35.191 409.673 35.2643 409.299 35.411C408.933 35.5577 408.614 35.763 408.342 36.027C408.071 36.291 407.858 36.6063 407.704 36.973C407.558 37.3323 407.484 37.7247 407.484 38.15C407.484 38.5753 407.558 38.9713 407.704 39.338C407.858 39.6973 408.071 40.009 408.342 40.273C408.614 40.537 408.933 40.7423 409.299 40.889C409.673 41.0357 410.077 41.109 410.509 41.109C410.927 41.109 411.32 41.0357 411.686 40.889C412.053 40.735 412.383 40.5003 412.676 40.185L413.391 40.878C413.039 41.274 412.61 41.5747 412.104 41.78C411.606 41.9853 411.056 42.088 410.454 42.088ZM418.276 42.088C417.689 42.088 417.143 41.989 416.637 41.791C416.138 41.593 415.705 41.318 415.339 40.966C414.972 40.6067 414.686 40.1887 414.481 39.712C414.275 39.2353 414.173 38.7147 414.173 38.15C414.173 37.5853 414.275 37.0647 414.481 36.588C414.686 36.1113 414.972 35.697 415.339 35.345C415.705 34.9857 416.138 34.707 416.637 34.509C417.135 34.311 417.682 34.212 418.276 34.212C418.862 34.212 419.401 34.311 419.893 34.509C420.391 34.6997 420.824 34.9747 421.191 35.334C421.565 35.686 421.851 36.1003 422.049 36.577C422.254 37.0537 422.357 37.578 422.357 38.15C422.357 38.722 422.254 39.2463 422.049 39.723C421.851 40.1997 421.565 40.6177 421.191 40.977C420.824 41.329 420.391 41.604 419.893 41.802C419.401 41.9927 418.862 42.088 418.276 42.088ZM418.276 41.109C418.701 41.109 419.093 41.0357 419.453 40.889C419.819 40.7423 420.135 40.537 420.399 40.273C420.67 40.0017 420.879 39.6863 421.026 39.327C421.18 38.9677 421.257 38.5753 421.257 38.15C421.257 37.7247 421.18 37.3323 421.026 36.973C420.879 36.6137 420.67 36.302 420.399 36.038C420.135 35.7667 419.819 35.5577 419.453 35.411C419.093 35.2643 418.701 35.191 418.276 35.191C417.843 35.191 417.443 35.2643 417.077 35.411C416.717 35.5577 416.402 35.7667 416.131 36.038C415.859 36.302 415.647 36.6137 415.493 36.973C415.346 37.3323 415.273 37.7247 415.273 38.15C415.273 38.5753 415.346 38.9677 415.493 39.327C415.647 39.6863 415.859 40.0017 416.131 40.273C416.402 40.537 416.717 40.7423 417.077 40.889C417.443 41.0357 417.843 41.109 418.276 41.109ZM424.038 42V34.3H427.283C428.104 34.3 428.826 34.4613 429.45 34.784C430.08 35.1067 430.568 35.5577 430.913 36.137C431.265 36.7163 431.441 37.3873 431.441 38.15C431.441 38.9127 431.265 39.5837 430.913 40.163C430.568 40.7423 430.08 41.1933 429.45 41.516C428.826 41.8387 428.104 42 427.283 42H424.038ZM425.138 41.043H427.217C427.855 41.043 428.405 40.922 428.867 40.68C429.336 40.438 429.699 40.1007 429.956 39.668C430.212 39.228 430.341 38.722 430.341 38.15C430.341 37.5707 430.212 37.0647 429.956 36.632C429.699 36.1993 429.336 35.862 428.867 35.62C428.405 35.378 427.855 35.257 427.217 35.257H425.138V41.043ZM434.127 37.622H438.087V38.557H434.127V37.622ZM434.226 41.043H438.714V42H433.126V34.3H438.56V35.257H434.226V41.043Z" fill="#FCFCFC"/>
<rect x="380" y="50" width="128" height="44" rx="4" fill="black" fill-opacity="0.5"/>
<path d="M405.826 80V64.6H408.774L417.86 75.688H416.43V64.6H419.95V80H417.024L407.916 68.912H409.346V80H405.826ZM431.074 80.264C429.856 80.264 428.727 80.066 427.686 79.67C426.659 79.274 425.764 78.7167 425.002 77.998C424.254 77.2793 423.667 76.436 423.242 75.468C422.831 74.5 422.626 73.444 422.626 72.3C422.626 71.156 422.831 70.1 423.242 69.132C423.667 68.164 424.261 67.3207 425.024 66.602C425.786 65.8833 426.681 65.326 427.708 64.93C428.734 64.534 429.849 64.336 431.052 64.336C432.269 64.336 433.384 64.534 434.396 64.93C435.422 65.326 436.31 65.8833 437.058 66.602C437.82 67.3207 438.414 68.164 438.84 69.132C439.265 70.0853 439.478 71.1413 439.478 72.3C439.478 73.444 439.265 74.5073 438.84 75.49C438.414 76.458 437.82 77.3013 437.058 78.02C436.31 78.724 435.422 79.274 434.396 79.67C433.384 80.066 432.276 80.264 431.074 80.264ZM431.052 77.228C431.741 77.228 432.372 77.1107 432.944 76.876C433.53 76.6413 434.044 76.304 434.484 75.864C434.924 75.424 435.261 74.9033 435.496 74.302C435.745 73.7007 435.87 73.0333 435.87 72.3C435.87 71.5667 435.745 70.8993 435.496 70.298C435.261 69.6967 434.924 69.176 434.484 68.736C434.058 68.296 433.552 67.9587 432.966 67.724C432.379 67.4893 431.741 67.372 431.052 67.372C430.362 67.372 429.724 67.4893 429.138 67.724C428.566 67.9587 428.06 68.296 427.62 68.736C427.18 69.176 426.835 69.6967 426.586 70.298C426.351 70.8993 426.234 71.5667 426.234 72.3C426.234 73.0187 426.351 73.686 426.586 74.302C426.835 74.9033 427.172 75.424 427.598 75.864C428.038 76.304 428.551 76.6413 429.138 76.876C429.724 77.1107 430.362 77.228 431.052 77.228ZM445.456 71.53H452.848V74.39H445.456V71.53ZM445.72 80H442.156V64.6H453.794V67.46H445.72V80ZM459.485 70.804H466.899V73.576H459.485V70.804ZM459.749 77.14H468.131V80H456.207V64.6H467.845V67.46H459.749V77.14ZM474.245 70.804H481.659V73.576H474.245V70.804ZM474.509 77.14H482.891V80H470.967V64.6H482.605V67.46H474.509V77.14Z" fill="#FCFCFC"/>
<path d="M519.584 55.768L519.088 55.104C518.575 54.3862 518.575 53.4218 519.088 52.704L519.568 52.032C519.921 51.5446 520.043 50.9271 519.901 50.3423C519.759 49.7574 519.369 49.264 518.832 48.992L518.096 48.608C517.3 48.1915 516.861 47.3106 517.008 46.424L517.144 45.624C517.234 45.0322 517.065 44.4304 516.681 43.9714C516.297 43.5123 515.734 43.2402 515.136 43.224H514.336C513.431 43.1911 512.647 42.5868 512.384 41.72L512.144 40.92C511.968 40.3399 511.553 39.8623 511.003 39.6072C510.453 39.3521 509.82 39.3437 509.264 39.584L508.464 39.904C507.634 40.2489 506.677 40.0416 506.064 39.384L505.504 38.776C505.097 38.3199 504.515 38.0591 503.904 38.0591C503.293 38.0591 502.711 38.3199 502.304 38.776L501.76 39.392C501.153 40.0574 500.199 40.28 499.36 39.952L498.56 39.632C498.005 39.3964 497.377 39.4052 496.829 39.6564C496.281 39.9076 495.864 40.3779 495.68 40.952L495.456 41.752C495.211 42.6229 494.432 43.2366 493.528 43.272L492.728 43.32C492.119 43.3384 491.548 43.621 491.164 44.0941C490.78 44.5673 490.621 45.1841 490.728 45.784L490.88 46.584C491.043 47.4688 490.616 48.3577 489.824 48.784L489.096 49.184C488.565 49.4645 488.182 49.9634 488.05 50.5496C487.918 51.1357 488.049 51.7504 488.408 52.232L488.904 52.896C489.419 53.613 489.419 54.579 488.904 55.296L488.424 55.968C488.071 56.4554 487.949 57.0729 488.091 57.6577C488.232 58.2426 488.623 58.736 489.16 59.008L489.896 59.392C490.692 59.8085 491.131 60.6894 490.984 61.576L490.84 62.376C490.753 62.9673 490.923 63.5676 491.306 64.026C491.69 64.4844 492.251 64.7573 492.848 64.776H493.648C494.552 64.8113 495.335 65.4146 495.6 66.28L495.832 67.08C496.012 67.6591 496.429 68.1349 496.979 68.3895C497.53 68.6442 498.162 68.6538 498.72 68.416L499.52 68.096C500.35 67.7511 501.307 67.9584 501.92 68.616L502.472 69.224C502.879 69.6801 503.461 69.9409 504.072 69.9409C504.683 69.9409 505.265 69.6801 505.672 69.224L506.224 68.608C506.831 67.9426 507.785 67.72 508.624 68.048L509.424 68.368C509.985 68.5962 510.615 68.5769 511.161 68.3148C511.706 68.0527 512.116 67.5722 512.288 66.992L512.512 66.192C512.757 65.3211 513.536 64.7074 514.44 64.672L515.24 64.624C515.843 64.5966 516.406 64.3102 516.783 63.8382C517.16 63.3662 517.315 62.7546 517.208 62.16L517.056 61.36C516.893 60.4752 517.32 59.5863 518.112 59.16L518.84 58.76C519.371 58.4795 519.753 57.9806 519.886 57.3944C520.018 56.8083 519.887 56.1936 519.528 55.712L519.584 55.768Z" fill="#38B87C"/>
<path fill-rule="evenodd" clip-rule="evenodd" d="M501.176 47.048C500.813 46.9104 500.428 46.8399 500.04 46.84C498.495 46.8395 497.17 47.9429 496.891 49.4626C496.613 50.9822 497.459 52.4841 498.904 53.032C499.267 53.1697 499.652 53.2402 500.04 53.24C501.585 53.2406 502.91 52.1371 503.189 50.6175C503.467 49.0978 502.621 47.596 501.176 47.048ZM510.224 48.912L498.912 60.224C498.762 60.3755 498.557 60.4607 498.344 60.4607C498.131 60.4607 497.926 60.3755 497.776 60.224C497.625 60.0738 497.539 59.8693 497.539 59.656C497.539 59.4427 497.625 59.2382 497.776 59.088L509.088 47.776C509.238 47.6246 509.443 47.5394 509.656 47.5394C509.869 47.5394 510.074 47.6246 510.224 47.776C510.376 47.9262 510.461 48.1307 510.461 48.344C510.461 48.5573 510.376 48.7618 510.224 48.912ZM500.04 48.44C499.375 48.4399 498.78 48.8507 498.544 49.472C498.393 49.8688 498.406 50.3092 498.581 50.6963C498.755 51.0833 499.075 51.3854 499.472 51.536C499.653 51.6059 499.846 51.6412 500.04 51.64C500.813 51.6403 501.475 51.0886 501.614 50.3287C501.754 49.5689 501.33 48.818 500.608 48.544C500.427 48.4741 500.234 48.4389 500.04 48.44ZM508 56.4C507.228 56.3998 506.565 56.9515 506.426 57.7113C506.286 58.4711 506.71 59.2221 507.432 59.496C507.613 59.5659 507.806 59.6012 508 59.6C508.665 59.6001 509.26 59.1893 509.496 58.568C509.647 58.1713 509.634 57.7309 509.46 57.3438C509.286 56.9567 508.965 56.6546 508.568 56.504C508.387 56.4341 508.194 56.3989 508 56.4ZM509.136 55.008C508.773 54.8704 508.388 54.7999 508 54.8C506.455 54.7995 505.13 55.9029 504.851 57.4226C504.573 58.9422 505.419 60.4441 506.864 60.992C507.227 61.1297 507.612 61.2002 508 61.2C509.545 61.2006 510.87 60.0971 511.149 58.5775C511.427 57.0578 510.581 55.556 509.136 55.008Z" fill="white"/>
<rect x="380" y="50" width="128" height="44" rx="4" stroke="#FCFCFC" stroke-linecap="round" stroke-dasharray="4 4"/>
<rect x="13.5" y="13.5" width="525" height="97" rx="6.5" stroke="white" stroke-width="3" stroke-dasharray="6 6"/>
<defs>
<linearGradient id="paint0_linear_1622_121293" x1="-36.5967" y1="133.651" x2="221.809" y2="-261.59" gradientUnits="userSpaceOnUse">
<stop stop-color="#86003E"/>
<stop offset="1" stop-color="#D2518D"/>
</linearGradient>
</defs>
</svg>
